<svg height="512pt" viewBox="-68 0 512 512" width="512pt" xmlns="http://www.w3.org/2000/svg"><path d="m316 60h-68c0-33.085938-26.914062-60-60-60s-60 26.914062-60 60h-68c-33.085938 0-60 26.914062-60 60v332c0 33.085938 26.914062 60 60 60h256c33.085938 0 60-26.914062 60-60v-332c0-33.085938-26.914062-60-60-60zm-148 0c0-11.027344 8.972656-20 20-20s20 8.972656 20 20v40h-40zm168 392c0 11.027344-8.972656 20-20 20h-256c-11.027344 0-20-8.972656-20-20v-332c0-11.027344 8.972656-20 20-20h68v40h120v-40h68c11.027344 0 20 8.972656 20 20zm-97.5625-176.289062c7.886719-10.523438 12.5625-23.582032 12.5625-37.710938 0-34.738281-28.261719-63-63-63s-63 28.261719-63 63c0 14.128906 4.675781 27.1875 12.5625 37.710938-26.171875 16.703124-43.5625 46.003906-43.5625 79.289062h40c0-29.777344 24.226562-54 54-54s54 24.222656 54 54h40c0-33.285156-17.390625-62.585938-43.5625-79.289062zm-73.4375-37.710938c0-12.683594 10.316406-23 23-23s23 10.316406 23 23-10.316406 23-23 23-23-10.316406-23-23zm-71 154h188v40h-188zm0 0"/></svg>