<svg id="Layer_1" data-name="Layer 1" xmlns="http://www.w3.org/2000/svg" viewBox="0 0 1143.14 862.91"><defs><style>.cls-1{fill:#5793ce;}.cls-2{fill:#c4d9e8;}.cls-3{fill:#d4ecff;}.cls-4{fill:#173d7a;}.cls-5{fill:#fff;}.cls-6{fill:#396caa;}.cls-7{fill:#d3d0cf;}.cls-8{fill:#f2f2f2;}.cls-9{fill:#ffc2b0;}.cls-10{fill:#ea9c92;}.cls-11{fill:#ff2c9c;}.cls-12{fill:#274f89;}.cls-13{fill:#d3008d;}</style></defs><title>login</title><rect class="cls-1" x="212.24" y="747.51" width="6.43" height="18.69" transform="translate(1002.11 736.05) rotate(104.38)"/><rect class="cls-1" x="221.48" y="756.51" width="6.43" height="18.69" transform="translate(1022.36 738.3) rotate(104.37)"/><rect class="cls-1" x="230.71" y="765.52" width="6.43" height="18.69" transform="translate(1042.61 740.61) rotate(104.37)"/><rect class="cls-1" x="239.95" y="774.53" width="6.43" height="18.69" transform="translate(1062.86 742.94) rotate(104.38)"/><path class="cls-2" d="M562.58,201.45l8.87,36.6,8,4.71,26.34.18-.62,13.94,24.67.17L629.26,271l24.67.17-.62,13.94,24.67.17-.62,13.94,24.67.18-.67,14.88L724.81,328c-16.52,23.45-8.37,51.46,24.55,70.78,27.19,15.95,64.9,22.25,100.23,18.81A177.89,177.89,0,0,0,876.15,413a135.25,135.25,0,0,0,33.42-13.11c44.42-25.23,44.72-66.64.65-92.5-36.21-21.24-91.09-25.33-134.16-12.11l-169.9-99.68ZM845.41,362.27c11.56-6.56,30.24-6.43,41.71.3s11.39,17.51-.17,24.08-30.24,6.43-41.71-.3S833.84,368.84,845.41,362.27Z"/><path class="cls-2" d="M513.22,826.17,742.35,694.43c15.43-8.91,13.49-24.47-4.32-34.75L515.65,531.29c-17.82-10.29-44.76-11.4-60.19-2.5L226.33,660.53c-15.42,8.91-13.49,24.47,4.32,34.75L453,823.67C470.85,834,497.8,835.07,513.22,826.17Z"/><path class="cls-1" d="M244.6,527.48l39.61-22.87-146-84.32c-6.9-4-6.9-10.46,0-14.45L287.37,319.7c6.89-4,18.12-4,25,0L458.44,404l39.61-22.87L352,296.83c-28.74-16.59-75.5-16.6-104.25,0L98.55,383c-28.74,16.6-28.74,43.6,0,60.19Z"/><path class="cls-3" d="M180.68,537.55c0-21.18,12.88-45.78,28.76-54.95L474.06,329.82c7.11-4.1,13.61-4.39,18.63-1.59h0l316,183.6L503.12,742.06,191.85,561.39a14.55,14.55,0,0,1-2.75-1.59h0C183.9,555.86,180.68,548.13,180.68,537.55Z"/><path class="cls-4" d="M503.12,742.06,191.85,561.39a14.6,14.6,0,0,1-2.75-1.6h0c-5.19-3.94-8.41-11.66-8.41-22.24,0-10.11,3-21,7.75-30.6L543.26,711.81Z"/><path class="cls-1" d="M523,741.24,787.64,588.46c15.88-9.17,28.76-33.77,28.76-55h0c0-21.17-12.88-30.91-28.76-21.74L523,664.55c-15.88,9.17-28.76,33.77-28.76,55h0C494.26,740.68,507.14,750.41,523,741.24Z"/><path class="cls-5" d="M562.66,689.71l31.81-18.35c3.17-1.83,5.73-6.73,5.73-11h0c0-4.22-2.56-6.16-5.73-4.33l-31.81,18.35c-3.17,1.83-5.74,6.73-5.74,11h0C556.92,689.6,559.49,691.54,562.66,689.71Z"/><polygon class="cls-6" points="801.55 151.72 747.18 182.6 691.7 150.05 691.85 135.89 692.32 136.17 692.37 135.17 667.69 135 667.84 121.06 643.65 120.89 643.79 106.95 619.6 106.78 619.74 92.84 595.55 92.67 595.69 78.73 569.83 78.55 561.79 73.83 552.92 37.23 553.07 23.08 557.35 36.64 596.5 31.41 801.55 151.72"/><polygon class="cls-3" points="747.33 168.44 691.85 135.89 692.51 121.01 667.84 120.84 668.47 106.9 643.79 106.73 644.42 92.79 619.74 92.62 620.37 78.68 595.7 78.51 596.32 64.57 569.98 64.39 561.94 59.67 553.07 23.08 596.65 17.25 801.69 137.56 747.33 168.44"/><path class="cls-6" d="M710.38,146.77c5.59-7.94,14-15.35,25.2-21.73a130,130,0,0,1,26-11l40.07,23.51-54.37,30.88Z"/><polygon class="cls-1" points="554.56 29.22 553.07 23.08 560.38 22.1 733.63 123.75 724.5 128.93 554.56 29.22"/><polygon class="cls-7" points="932.95 196.38 933.55 176.25 927.11 189.85 932.95 196.38"/><path class="cls-6" d="M900.11,149.17c-44.06-25.86-115.79-26.36-160.21-1.12-14.42,8.19-24.15,18.08-29.27,28.6l-3.62-4-.61,21.33h0c-.18,16.78,10.76,33.65,32.85,46.61C783.31,266.4,855,266.9,899.46,241.66S944.17,175,900.11,149.17ZM877,204.31c11.47,6.73,11.4,17.51-.17,24.08s-30.23,6.44-41.7-.29-11.4-17.51.16-24.08S865.53,197.58,877,204.31Z"/><path class="cls-8" d="M900.71,129.05c-44.06-25.85-115.79-26.35-160.21-1.12s-44.71,66.64-.65,92.5,115.79,26.35,160.21,1.12S944.77,154.9,900.71,129.05ZM877.6,184.19c11.47,6.73,11.4,17.51-.17,24.08s-30.23,6.44-41.7-.29-11.4-17.51.16-24.08S866.13,177.46,877.6,184.19Z"/><path class="cls-1" d="M848.56,232.57c9.77,1.52,20.58.19,28.27-4.18,8.3-4.71,10.65-11.58,7.1-17.58l20.13-16L925,171.22c16.2,23.69,7.67,51.58-25.53,70.44-14.65,8.32-31.06,13.05-49.68,15.79Z"/><path class="cls-3" d="M900.71,129.05c-44.06-25.85-115.79-26.35-160.21-1.12s-44.71,66.64-.65,92.5c27.18,15.95,64.89,22.25,100.23,18.81a178.12,178.12,0,0,0,26.56-4.59,135.23,135.23,0,0,0,33.42-13.1C944.48,196.31,944.77,154.9,900.71,129.05ZM877.6,184.19c11.47,6.73,11.4,17.51-.17,24.08s-30.23,6.44-41.7-.29-11.4-17.51.16-24.08S866.13,177.46,877.6,184.19Z"/><path class="cls-6" d="M921.05,175.72c-2.16-12.9-11.72-25.49-28.74-35.48-39.2-23-103-23.44-142.54-1-19.64,11.15-29.56,25.86-29.79,40.67-2.81-16.81,6.95-34.12,29.32-46.83,39.52-22.45,103.34-22,142.54,1C911.56,145.66,921.27,160.73,921.05,175.72Z"/><path class="cls-6" d="M913.33,348.31c-37.65-22.09-68-75.58-67.73-119.23.1-13.57,2.94-25.23,8.46-34.64A44.61,44.61,0,0,1,870.54,178c15.92-9,36-7.35,56.67,4.76,37.66,22.09,68,75.58,67.73,119.22-.17,23.93-9,42.09-24.94,51.12a44.5,44.5,0,0,1-22.23,5.74C936.93,358.8,925.21,355.28,913.33,348.31ZM878.45,191.89a28.71,28.71,0,0,0-10.58,10.66h0c-4,6.85-6.18,16.06-6.25,26.64-.27,38.56,26.56,85.8,59.82,105.31,15.49,9.08,29.92,10.72,40.65,4.63s16.71-19.33,16.83-37.3c.28-38.55-26.56-85.79-59.81-105.3-9.35-5.48-18.31-8.26-26.31-8.26A28.68,28.68,0,0,0,878.45,191.89Z"/><path class="cls-3" d="M871.89,223.7l-31.62,7.75L835.73,208c11.47,6.73,30.14,6.86,41.7.29Z"/><path class="cls-3" d="M900.06,221.55a135.23,135.23,0,0,1-33.42,13.1,178.12,178.12,0,0,1-26.56,4.59c-35.34,3.44-73.05-2.86-100.23-18.81l128.79-2.89Z"/><path class="cls-6" d="M852.47,237.81a187.56,187.56,0,0,0,28-7.21v19.76c-6.8,2.37-18,5.81-27.62,7.08C823.33,261.34,852.47,237.81,852.47,237.81Z"/><path class="cls-1" d="M873,233a130.37,130.37,0,0,0,18.22-6.72c17.23-8.07-4.57,21.81-4.57,21.81s-5.87,2.34-13.65,4.73Z"/><polygon class="cls-1" points="549.91 580.15 606.26 616.49 633.69 612.04 566.69 579.65 549.91 580.15"/><path class="cls-4" d="M618,763.63s16.23-8.18,26.2,4,24.22,41,24.66,60.4-15.39,18.13-24.79,13.53-36.89-44.47-38.56-52.28,2-18.38,4.61-20.44S618,763.63,618,763.63Z"/><path class="cls-1" d="M614.5,759.72l-.75,16.82a9.54,9.54,0,0,0,4.75,8.75A18.69,18.69,0,0,0,631,787.23c12.23-2,13.32-5.45,14.19-22.27S614.5,759.72,614.5,759.72Z"/><path class="cls-4" d="M677.46,731.3s16.23-8.18,26.2,4,24.21,41,24.66,60.41-15.39,18.13-24.8,13.52S666.63,764.77,665,757s2-18.37,4.6-20.44S677.46,731.3,677.46,731.3Z"/><path class="cls-1" d="M673.92,727.39l-.76,16.82a9.52,9.52,0,0,0,4.76,8.74,18.66,18.66,0,0,0,12.52,1.95c12.22-2,13.32-5.46,14.19-22.27S673.92,727.39,673.92,727.39Z"/><path class="cls-3" d="M529.08,418.66c4.81-78.17,84.65,11.5,84.65,11.5l54.65,53.56,49.21,54.06a48.49,48.49,0,0,1,12.23,39L709.91,728.33A14.9,14.9,0,0,1,695,741.28a50.42,50.42,0,0,1-7.37-.64C669.84,737.87,671.15,721,671.15,721l3.64-141.78-103.35-62.3S524.28,496.82,529.08,418.66Z"/><path class="cls-1" d="M635.3,552.42,650,547c.35,0,25,23.84,24.79,32.19l-11.07,3.55L636,555.8Z"/><path class="cls-1" d="M549.91,580.15s-61.41-35.07-68.76-49.77c-2.88-5.76-7.36-11.78,10.57-20.48l81.9,58.39-3.55,20.1Z"/><path class="cls-3" d="M469.67,448.82c5.12-78.14,84.65,11.5,84.65,11.5L609,513.89,658.18,568a48.5,48.5,0,0,1,12.22,39L650.5,758.5a14.9,14.9,0,0,1-14.94,13,50.69,50.69,0,0,1-7.38-.65c-17.75-2.77-16.44-19.65-16.44-19.65l3.63-141.77L512,547.08S465,520.27,469.67,448.82Z"/><path class="cls-1" d="M516.91,197.53c-60.54,25.1-59.32,60.88-59.32,60.88s11.85,131.19,7.81,218.8c-1.7,36.63,194.59,39.42,165.32-58.29C596.2,303.71,609.14,210.44,593,196.37S532.57,191,516.91,197.53Z"/><path class="cls-9" d="M497.43,229.26c3.17,12.29,19.27,18.77,36,14.46s27.67-17.75,24.5-30-19.27-18.77-36-14.47S494.27,217,497.43,229.26Z"/><path class="cls-5" d="M494.63,230c-1.77-6.86.13-14.16,5.36-20.57a40.27,40.27,0,0,1,21.22-13c18.22-4.7,35.94,2.73,39.49,16.55,1.77,6.86-.13,14.16-5.36,20.57-5,6.15-12.55,10.76-21.22,13a44.14,44.14,0,0,1-10.94,1.4C509.28,247.93,497.46,241,494.63,230Zm28-28a34.39,34.39,0,0,0-18.18,11c-4,4.94-5.54,10.44-4.25,15.47,2.77,10.72,17.32,16.26,32.45,12.38,7.48-1.93,13.94-5.85,18.18-11,4-4.94,5.53-10.44,4.24-15.47-2.17-8.4-11.56-13.63-22.81-13.63A38.42,38.42,0,0,0,522.66,202Z"/><path class="cls-9" d="M541.18,194.8s-.52,2.43.52,21.61c.33,6-20.78,11.66-26.24,6.21s-3.28-11.14-4.59-31.66S541.18,194.8,541.18,194.8Z"/><path class="cls-10" d="M510.87,191s5.2,19,30.84,26.32L541.32,200Z"/><path class="cls-9" d="M494.64,142.61a46.59,46.59,0,1,0,56.77-33.45A46.58,46.58,0,0,0,494.64,142.61Z"/><path class="cls-10" d="M529.05,156s25.65,11,43.42,11.12,13.85-14.75,13.85-14.75l-52.74-7.62Z"/><path class="cls-11" d="M577.76,158.88s-22.35-9.49-42-5.54a20.55,20.55,0,0,0-11.85,7,7,7,0,0,1-3.59,2.59c-3.47.79-9.16-13.64-15.92-14s-11.27,4.46-5.73,13.33,3.67,18.8,1.12,20.22S470.25,163.28,494.1,116,578.54,94.22,588,103.8c0,0,9.93,8.65,18,1C606,104.75,615,172.54,577.76,158.88Z"/><path class="cls-9" d="M491.54,354.25V389.7a14.41,14.41,0,0,0,4.72,10.67l72.82,66.39-8.28,12.66-96.16-69.75a19.53,19.53,0,0,1-8-13.78l-6.5-61.82Z"/><path class="cls-1" d="M462.71,240.68s-22.09,33.23-30.32,120.68c0,0,37.74,12.21,59.15,5.28S462.71,240.68,462.71,240.68Z"/><path class="cls-6" d="M495.58,282.69s8.65,46.29,9.14,68.05a13.91,13.91,0,0,1-9.14,13.41h0Z"/><path class="cls-4" d="M514.47,512.86l16.1-2.13,103.89-60c3.33-1.92,9.15-1.68,13,.54l73.62,42.49,9.73-1.29v9.69h0a3.78,3.78,0,0,1-2.24,3.41l-117.74,68c-3.33,1.93-9.15,1.68-13-.54l-80.18-46.27c-2.16-1.25-3.24-2.86-3.18-4.37h0Z"/><path class="cls-6" d="M592.53,475l7.39-4.27h81.15l40,23.09,9.73-1.29v9.69h0a3.78,3.78,0,0,1-2.24,3.41l-117.74,68a12.19,12.19,0,0,1-6.71,1.26Z"/><path class="cls-1" d="M726.49,493.06l4.32-.57v9.69h0a3.78,3.78,0,0,1-2.24,3.41l-2.07,1.2Z"/><path class="cls-12" d="M609.63,574.12a15.07,15.07,0,0,1-11-.68V557h11Z"/><path class="cls-5" d="M610.82,563.89l117.74-68c3.34-1.92,2.92-5.28-.93-7.5l-80.17-46.28c-3.85-2.22-9.67-2.46-13-.53l-117.74,68c-3.33,1.92-2.92,5.28.93,7.5l80.18,46.27C601.67,565.57,607.49,565.81,610.82,563.89Z"/><path class="cls-3" d="M612.81,553.59l97.91-56.53c2.77-1.6,2.42-4.39-.78-6.24l-43-24.16c-3.2-1.84-8-2-10.81-.44l-97.9,56.52c-2.77,1.6-2.42,4.39.77,6.24l43,24.16C605.2,555,610,555.19,612.81,553.59Z"/><path class="cls-9" d="M642.9,439.9l1.22,8.13a60,60,0,0,1-.53,20.83L642.14,476a10.07,10.07,0,0,1-8.06,7.91h0a5.56,5.56,0,0,1-6.52-4.85l-1.94-17.37s-4.45,5.82-6.59,5.82,2.4-17.39,7.25-27.23S642.9,439.9,642.9,439.9Z"/><path class="cls-9" d="M603,310.78l12.64,25a49.28,49.28,0,0,1,5.17,19l5.48,85.53,16.62-.4,7.55-96A35.24,35.24,0,0,0,650,335l-8.62-48.7Z"/><path class="cls-4" d="M614.81,570.42l9.87-12.89L728.5,497.42c3.33-1.93,6-7.09,6-11.53l-.09-85,6-7.79-5.61-3.25h0a3.77,3.77,0,0,0-4.07.23L613.05,458.21c-3.33,1.93-6,7.09-6,11.53l.09,92.57c0,2.5.86,4.24,2.21,4.94h0Z"/><path class="cls-6" d="M686.61,521.68l7.37-4.27,40.49-70.33,0-46.19,6-7.79-5.61-3.25h0a3.77,3.77,0,0,0-4.07.23L613.05,458.21a12.2,12.2,0,0,0-4.43,5.19Z"/><path class="cls-1" d="M737.75,396.55l2.65-3.45-5.61-3.25h0a3.77,3.77,0,0,0-4.07.23l-2.07,1.2Z"/><path class="cls-12" d="M612,459a15,15,0,0,0-4.91,9.91l11.5,6.64,5.51-9.57Z"/><path class="cls-1" d="M618.66,461.46l117.66-68.12c3.33-1.93,6,.11,6,4.55l.1,92.57c0,4.44-2.69,9.6-6,11.53L618.78,570.11c-3.33,1.93-6-.11-6-4.55l-.1-92.57C612.63,468.55,615.33,463.39,618.66,461.46Z"/><path class="cls-9" d="M560.8,479.42l1.89,3.9a26.17,26.17,0,0,0,9.83,10.91l11.69,7.2a11.64,11.64,0,0,0,11.93.28l.4-.24c3.71-2.33,4.05-7.66,1-10.81l-12.21-12.55s6.86,5.25,8.78,3.14c1.41-1.55-6.65-9.13-12.84-9.37s-12.18-5.12-12.18-5.12Z"/><path class="cls-1" d="M591.77,196.19s44.77,48.71,62.84,93.4c0,0-15.32,27.59-52.79,38.41S591.77,196.19,591.77,196.19Z"/><path class="cls-6" d="M610.25,325.11,603,255l17.1,65.68A98.42,98.42,0,0,1,610.25,325.11Z"/><path class="cls-5" d="M558.24,186.36l12-3.31s-5.75,9-14.13,11.34-9.69-4.8-9.69-4.8Z"/><path class="cls-3" d="M752.88,45a33.7,33.7,0,1,1,33.7,33.7A33.74,33.74,0,0,1,752.88,45Zm7.36,0a26.35,26.35,0,1,0,26.34-26.34A26.37,26.37,0,0,0,760.24,45Z"/><path class="cls-1" d="M81.41,297.6a23.9,23.9,0,1,1,23.9,23.9A23.93,23.93,0,0,1,81.41,297.6Zm7.36,0a16.54,16.54,0,1,0,16.54-16.54A16.56,16.56,0,0,0,88.77,297.6Z"/><path class="cls-1" d="M855.84,737l16.22-33,33,16.22-16.22,33Zm19.57-23.15-9.73,19.79,19.79,9.73,9.73-19.79Z"/><path class="cls-1" d="M377,225.67l16.22-33,33,16.22-16.22,33Zm19.57-23.15-9.73,19.8,19.8,9.73,9.72-19.8Z"/><rect class="cls-1" x="928.53" y="554.9" width="16.9" height="16.9" transform="translate(1529.29 1482.3) rotate(-153.82)"/><path class="cls-13" d="M338.74,62.89l90.14-52a4.6,4.6,0,0,1,4.66-.37v-.06l8.74,5.05-6.14,2.25V83.35c0,5.34-3.25,11.55-7.25,13.86L342.72,147v7.7l-8.83-5.08,0,0c-1.49-.91-2.45-2.91-2.45-5.78v-67C331.48,71.4,334.73,65.2,338.74,62.89Z"/><path class="cls-11" d="M347.64,154.38l90.14-52c4-2.31,7.25-8.52,7.25-13.86v-67c0-5.34-3.24-7.8-7.25-5.48L347.64,68c-4,2.31-7.25,8.52-7.25,13.86v67C340.39,154.24,343.63,156.7,347.64,154.38Z"/><path class="cls-5" d="M407.47,79.24c0,3.88,2.72,5.45,6.08,3.52a13.45,13.45,0,0,0,6.08-10.54c0-3.88-2.72-5.45-6.08-3.51A13.45,13.45,0,0,0,407.47,79.24Z"/><path class="cls-5" d="M389,89.88c0,3.88,2.72,5.45,6.08,3.51a13.44,13.44,0,0,0,6.09-10.53c0-3.88-2.73-5.45-6.09-3.51A13.43,13.43,0,0,0,389,89.88Z"/><path class="cls-5" d="M370.62,100.52c0,3.88,2.72,5.45,6.08,3.51a13.43,13.43,0,0,0,6.08-10.53c0-3.88-2.72-5.45-6.08-3.51A13.41,13.41,0,0,0,370.62,100.52Z"/><path class="cls-1" d="M961.86,633.14l88.44-51.06a4.53,4.53,0,0,1,4.57-.37v-.05l8.58,5-6,2.21v64.39c0,5.24-3.18,11.33-7.11,13.6l-84.53,48.8v7.55l-8.66-5h0c-1.46-.9-2.4-2.86-2.4-5.67V646.73C954.75,641.49,957.94,635.41,961.86,633.14Z"/><path class="cls-3" d="M970.6,722.9,1059,671.84c3.93-2.27,7.12-8.35,7.12-13.59V592.49c0-5.23-3.19-7.64-7.12-5.37l-88.43,51c-3.93,2.27-7.12,8.36-7.12,13.6v65.75C963.48,722.76,966.67,725.17,970.6,722.9Z"/><path class="cls-5" d="M1029.29,649.18c0,3.81,2.67,5.35,6,3.45a13.2,13.2,0,0,0,6-10.33c0-3.81-2.68-5.35-6-3.45A13.17,13.17,0,0,0,1029.29,649.18Z"/><path class="cls-5" d="M1011.22,659.62c0,3.81,2.67,5.35,6,3.45a13.19,13.19,0,0,0,6-10.34c0-3.8-2.67-5.35-6-3.44A13.19,13.19,0,0,0,1011.22,659.62Z"/><path class="cls-5" d="M993.14,670.06c0,3.8,2.67,5.34,6,3.44a13.2,13.2,0,0,0,6-10.33c0-3.81-2.68-5.35-6-3.45A13.18,13.18,0,0,0,993.14,670.06Z"/></svg>