<?xml version="1.0" encoding="utf-8"?>
<!-- Generator: Adobe Illustrator 23.0.0, SVG Export Plug-In . SVG Version: 6.00 Build 0)  -->
<svg version="1.1" id="Capa_1" xmlns="http://www.w3.org/2000/svg" xmlns:xlink="http://www.w3.org/1999/xlink" x="0px" y="0px"
	 viewBox="0 0 484.1 400" style="enable-background:new 0 0 484.1 400;" xml:space="preserve">
<style type="text/css">
	.st0{fill:#CDE4F7;}
	.st1{fill:#86D4FC;}
	.st2{fill:#021A6C;}
	.st3{fill:#DBF4FE;}
	.st4{fill:#B3E7FD;}
	.st5{fill:#E3F0FA;}
	.st6{fill:#EDFAFE;}
	.st7{fill:#E8F2FB;}
	.st8{fill:#020F4F;}
	.st9{fill:#FCDFD6;}
	.st10{fill:#BFE9FD;}
	.st11{fill:#C0E9FD;}
	.st12{fill:#FDD4CA;}
	.st13{fill:#BEE5F9;}
	.st14{fill:#8BD3FB;}
	.st15{fill:#F8D4CB;}
	.st16{fill:#191D55;}
	.st17{fill:#C4EBFD;}
	.st18{fill:#8F869F;}
	.st19{fill:#E6EAF5;}
	.st20{fill:#E4F0FA;}
	.st21{fill:#E7F1FB;}
	.st22{fill:#99A1C4;}
	.st23{fill:#000760;}
	.st24{fill:#00055E;}
	.st25{fill:#FEFEFE;}
	.st26{fill:#6CC1F5;}
	.st27{fill:#F4F9FC;}
	.st28{fill:#F3F8FC;}
	.st29{fill:#D8EFFC;}
	.st30{fill:#F9DDD5;}
	.st31{fill:#FDDFD6;}
	.st32{fill:#94D2F6;}
	.st33{fill:#F4F9FD;}
	.st34{fill:#42A7E7;}
	.st35{fill:#41A7E7;}
	.st36{fill:#75C9F8;}
	.st37{fill:#BFEAFD;}
	.st38{fill:#E0F4FE;}
	.st39{fill:#E5F6FE;}
	.st40{fill:#87B9D3;}
	.st41{fill:#8CD2F9;}
	.st42{fill:#62BEF6;}
	.st43{fill:#FCFCFD;}
	.st44{fill:#FEDFD5;}
	.st45{fill:#D8F0FB;}
	.st46{fill:#00055D;}
	.st47{fill:#00085F;}
	.st48{fill:#F6F7F9;}
	.st49{fill:#90A4D5;}
	.st50{fill:#C5EBFD;}
	.st51{fill:#C7ECFD;}
	.st52{fill:#FBE4D4;}
	.st53{fill:#665D81;}
	.st54{fill:#192560;}
	.st55{fill:#BAC6E6;}
	.st56{fill:#D9EFFC;}
	.st57{fill:#1765D1;}
	.st58{fill:#1D96F8;}
	.st59{fill:#075BCE;}
	.st60{fill:#0087F7;}
	.st61{fill:#1F69D1;}
	.st62{fill:#1B96F8;}
	.st63{fill:#98C4F1;}
	.st64{fill:#0053CB;}
	.st65{fill:#088EF7;}
	.st66{fill:#0151CA;}
	.st67{fill:#0D8AF7;}
	.st68{fill:#0B56CC;}
	.st69{fill:#AFD1F4;}
	.st70{fill:#289DF8;}
	.st71{fill:#B0D1F4;}
	.st72{fill:#ACD0F3;}
	.st73{fill:#A3CBF2;}
	.st74{fill:#A9CEF3;}
	.st75{fill:#ABCFF3;}
	.st76{fill:#9FC9F1;}
	.st77{fill:#2D9CF8;}
	.st78{fill:#005ECE;}
	.st79{fill:#018FF7;}
	.st80{fill:#008EF7;}
	.st81{fill:#96C3F0;}
	.st82{fill:#96C4F0;}
	.st83{fill:#038FF7;}
	.st84{fill:#279BF8;}
	.st85{fill:#1E68D1;}
	.st86{fill:#62BDF4;}
	.st87{fill:#60BCF4;}
	.st88{fill:#015DCE;}
	.st89{fill:#CEE4F7;}
	.st90{fill:#05BCFD;}
	.st91{fill:#FEE0D7;}
	.st92{fill:#048EF6;}
	.st93{fill:#9FC8F2;}
	.st94{fill:#A4CBF2;}
	.st95{fill:#9DC7F1;}
	.st96{fill:#2C71D4;}
	.st97{fill:#279AF8;}
	.st98{fill:#0EBCFE;}
	.st99{fill:#DEE8F3;}
	.st100{fill:#82CAF6;}
	.st101{fill:#217DD3;}
	.st102{fill:#63C8F2;}
	.st103{fill:#207CD3;}
	.st104{fill:#2A88D8;}
	.st105{fill:#2986D8;}
	.st106{fill:#2B89D9;}
	.st107{fill:#2987D8;}
	.st108{fill:#2986D7;}
	.st109{fill:#43A9E7;}
	.st110{fill:#035ECE;}
	.st111{fill:#005BCE;}
	.st112{fill:#62C8F2;}
	.st113{fill:#0460CF;}
	.st114{fill:#62C7F2;}
	.st115{fill:#045FCF;}
	.st116{fill:#0560CF;}
	.st117{fill:#60C6F1;}
	.st118{fill:#0660CF;}
	.st119{fill:#6FC6F7;}
	.st120{fill:#D0D8EE;}
	.st121{fill:#0147BD;}
	.st122{fill:#3FA4E5;}
	.st123{fill:#40A4E6;}
	.st124{fill:#40A4E5;}
	.st125{fill:#43AAE8;}
	.st126{fill:#41A6E6;}
	.st127{fill:#3FA4E6;}
	.st128{fill:#40A5E6;}
	.st129{fill:#2988D8;}
</style>
<path class="st0" d="M216.2,341c-5.4,3.2-10.8,6.3-16.1,9.5c-1.2,0.7-2.5,0.5-3.9,0.5c-0.3-0.3-0.7-0.7-1-1l0,0c0-0.3,0-0.7,0-1
	c1.7-1.5,1-3.4,1-5.2c0.1-20,0.1-39.9,0.1-59.9c2.2-0.1,3.4-1.9,5.2-2.8c6.3-3.3,12-7.6,18.7-10.2c0.8,2.6,1,5.2,1,7.9
	c-0.1,12.7,0,25.3,0,38c0,1.2-0.7,2.9,0.8,3.6c1.3,0.6,2.4-0.6,3.5-1.3c14.2-8.2,28.5-16.5,42.7-24.6c14-8,27.9-16.1,41.9-24
	c3.7-2.1,5.3-4.7,5.2-9.2c-0.3-22.5-0.1-45-0.1-67.4c0-1.3,0-2.7-0.1-4c-0.1-1.5-1.1-2.1-2.4-1.5c-1.4,0.5-2.7,1.2-4,2
	C299,196,289.4,202,279.3,207c-0.7-3.4,1.1-7-1.1-10.2c18.1-10.5,36.2-21,54.3-31.4c2.9-1.7,4.9-3.5,4.9-7.3
	c-0.1-23.6,0-47.3-0.1-70.9c0-4.6-0.4-4.8-4.3-2.6c-17.9,10.2-35.8,20.3-53.7,30.4c-0.1-4.3-0.1-8.6-0.2-12.9
	c0.4-0.4,0.8-0.7,1.2-1.1c4.1-2.3,8.2-4.5,12.2-6.8c19.3-11.1,38.5-22.2,57.8-33.3c23-13.3,46-26.6,69-40c0.3-0.3,0.7-0.7,1-1
	c0-0.3,0-0.7,0-1l0,0c0.7,0,1.3,0,2,0c0.3,0.3,0.7,0.7,1,1c0,0.3,0,0.6,0,1c-0.1,7-0.7,13.9-0.8,20.8c-0.5,35.5,0.2,71.1-1.2,106.6
	c-0.1,3.4,1,6.9-1,10c0.4,0.2,0.9,0.4,1.3,0.6c-0.9,0.4-1.8,0.8-2.7,1.2c-3.9,1.9-4,2.6-0.2,5.4c-4.3,5.7-3.2,12.6,2.7,17.3
	c0,0.8-0.2,1.6-1,2c-4.8,0.8-7.7-1.2-9.5-5.7c-1-2.6-2.8-4.8-4-7.3c-0.8-1.6-1.9-2.1-3.6-2c3.6-4.4,0.3-11.8-5.9-13
	c0-4.5-0.1-9,0-13.5c0.1-3.6-1.3-3.5-3.8-2c-21.1,12.2-42.2,24.4-63.3,36.7c-2.5,1.5-5,3.3-5,6.9c0,24,0,47.9,0.1,71.9
	c0,4.1,0.8,4.3,4.4,2.2c10.2-5.9,20.4-11.7,30.6-17.6c10.9-6.3,21.8-12.7,32.7-18.9c3-1.7,4.6-3.8,4.3-7.6c-0.4-4.3-0.1-8.6-0.1-13
	c5.3-1.2,10.6-1.1,15.9-1c0,7.7-0.3,15.4,1,23c-1.3,0.7-2.7,1.3-4,2c-32.4,19-64.9,38-97.3,57.1c-27.6,16.2-55.1,32.5-82.6,48.9
	C225.6,334.9,220.2,336.8,216.2,341z"/>
<path class="st1" d="M130.2,322c-13.3,7.7-26.7,15.3-40,23c-0.3,0-0.7,0-1,0.1c-1,0.5-2,0.6-3-0.1c0-0.7,0-1.4,0-2.1
	c0-28.2,0.1-56.4,0.1-84.7c0-13.4,0.1-26.9,0.1-40.3c0.3,0,0.6,0.1,0.9,0.1c0.1,1-0.6,2.5,0.4,2.9c0.8,0.3,1.1-1.2,1.5-2
	c2-3.5,5.6-6.3,5-11c-0.3-2.2-1.6-4.2-3.5-4.2c-1.8-0.1-1.4,2.3-1.4,3.7c-0.2,3.3-1.4,2.3-2.7,0.7c-0.1-5.8-0.2-11.5-0.2-17.3
	c0-4.1,1.8-7.2,5.6-9.2c3.5-1.8,6.9-3.9,10.3-5.9c57.7-33.3,115.3-66.5,173-99.8c1-0.3,2-0.7,3.1-1c0.3,0.3,0.6,0.7,0.9,1
	c0,8,0,16,0.1,24l0,0c-0.3,0-0.6,0-0.9,0.1c-1.3-1.8-2.5-0.7-3.8,0.1c-7,4.1-14.1,8.2-21.1,12.3c-17.8,10.3-35.7,20.6-53.6,30.8
	c-5.3,3-7.7,7-7.7,13.3c0.2,42.2,0.1,84.3,0.1,126.5c-0.7,0.7-1.3,1.4-2,2.1c-15,9.7-30.9,18.1-46.1,27.6
	C139.4,315.6,133.9,317.5,130.2,322z M173.2,184.3c0-9.3,0-18.7,0-28c0-3.2-0.9-3.8-3.8-2.1c-20.7,12-41.4,23.9-62.2,35.9
	c-2.6,1.5-4.1,3.5-4,6.8c0.1,17.8,0,35.6,0.1,53.5c0,4.7,0.7,5.1,4.8,2.7c20.6-11.9,41.1-23.9,61.7-35.7c2.4-1.4,3.5-3.2,3.5-6
	C173.1,202.3,173.2,193.3,173.2,184.3z M173.2,253.1c0-8.2,0-16.3,0-24.5c0-7.5,0-7.6-6.7-3.7c-19.7,11.3-39.4,22.7-59.2,34
	c-2.9,1.6-4.2,3.8-4.2,7.2c0.1,16.3,0.1,32.6,0.1,48.9c0,1.5,0.1,3,0,4.5c-0.2,3.4,0.8,4.9,4.2,2.8c0.6-0.4,1.2-0.6,1.8-0.9
	c20-11.5,40-23,60-34.5c2.9-1.7,4.1-3.9,4-7.4C173.1,270.8,173.2,261.9,173.2,253.1z"/>
<path class="st2" d="M403.3,313.9c-4.6-3.6-4.6-3.7-3-6.8c1.7,1.3,3.4,1.4,5-0.2c8.5-0.1,8.6-0.1,8-8.4c-1.2-18.6-1.3-37.2,0.1-55.9
	c0.1-2-0.1-4,0.8-5.9c0.2,1.4,0.4,2.8,0.6,4.2c1.2-1.3,0.4-2.9,0.6-4.4c0.1-1,0-1.9-0.9-2.6c0.1-2.2,0.1-4.5,0.2-6.7
	c7,3.9,13.6,3.2,19.8-1.9c0.7-0.6,1.2-0.1,1.8,0c3.6,11.1,2.6,22.7,3.5,34.1c1.2,14.9,3.2,29.6,4.9,44.4c-1.7,4.4-3.4,5.2-7.3,3.4
	c-2.6-1.2-5.1-2.1-7.9-2.4c-2-1.3-4.6-1.8-6-4c0-1-0.1-2.1-0.1-3.1c3.1-2.3,6.4-0.7,9.7-0.7c3.2,0,4-0.9,3.1-4.1
	c-3.9-13.6-6.7-27.5-8.7-41.5c-0.1-0.7,0.2-2-0.9-1.9c-1,0-0.7,1.3-0.8,2c-2.6,15.3-2.2,30.8-3.1,46.2c-1.4,3.3-1.1,6.7-0.9,10.1
	c0,1.6,0,3.2,0,4.9c-0.1,1.9-0.8,3.5-2.3,4.8c-0.3,0-0.6,0.1-0.9,0.3c-1.2-0.1-2.5-0.2-3.7-0.2C411.3,314.8,407.1,314.9,403.3,313.9
	z"/>
<path class="st2" d="M31.4,349c0.1-12.7,2.6-25,4.1-37.6c0.2-1.4,0.7-3,1.6-4.2c3.5-4.5,3.1-9.5,2.7-14.7
	c-0.6-8.1-0.9-16.3-1.4-24.4c-0.3-4.5,1.3-8.5,4-12c1.9,0.5,2.7,2.9,4.9,2.9l0,0c0.5,0.7,1.2,1,2,0.8c0.8,0.3,1.5,0.7,2.3,1
	c-0.1,0.1-0.2,0.2-0.3,0.3c-0.1,0.1-0.1,0.4-0.1,0.4c1.4,0.3,3,1.5,3.9-0.7c1.6-1.2,3.9-1.2,5.3-2.8c2,0.4,3.3,1.8,4.8,3
	c1.1,22.2,1.4,44.5-1.9,66.6c-0.3,2.2,0.7,3.8,1.7,5.5c2.3,3.9,6.3,5.8,9.3,8.9c-1.7,2.6-4.4,1.8-6.8,1.9c-3.5-0.7-4.6-4.1-7-6l0,0
	c-0.1-0.7-0.5-0.9-1.1-0.8c-1.5,0-1.2,1-0.9,1.9c-0.4,0.8-1.1,1.2-2,1c-0.4-8.9-0.6-17.8-1.2-26.7c-0.6-10,2.3-20.1-0.6-30
	c-0.4-1.4-0.4-3-0.5-4.4c-1.7,1-0.5,3.1-1.7,4.3c0-0.8,0-1.6-0.2-2.4c-0.2-0.8,0.8-2-0.7-2.5c-0.3,1.7-0.8,3.5,0.9,4.9
	c-1.4,16.8-5.9,32.9-11.7,48.6c-2.8,7.6-2.2,10.6,3.8,16.1c1.6,1.5,3.3,2.7,5,4.1c-0.3,1.2-1.3,1.7-2.2,2.3
	c-5.1,0.5-8.5-1.9-10.9-6.2c-0.5-0.9-1.3-1.4-2.3-1.1c-1,0.3-0.7,1.2-0.6,2C32.8,350,32.1,349.5,31.4,349z"/>
<path class="st3" d="M436,225.4c-0.6-0.1-1.1-0.6-1.8,0c-6.2,5-12.7,5.7-19.8,1.9l-0.3-0.3c0.7-1,0.7-2,0.1-3c-1.3-7.6-1-15.3-1-23
	c2.1-0.4,4.1-1,6.2-1.1c2.4-0.1,3.7-1.8,3.8-4.3c0-2.5-1.2-4-3.6-4.5c-1.1-0.2-2.3-0.1-3.4-0.1c1.9-1.6,3.9-3.2,4-6
	c0.8-0.4,1-1.2,1-2c0.3,0,0.7,0,1,0.1c2.4,3.5,4.7,2.5,7.1,0c9.8,3.8,8.7,11.8,7.8,19.8c-0.1,0.4-0.5,0.8-0.8,1.2
	c-4,3.2-8.1,6.2-12,9.5c-3.2,2.8-2.6,4.2,1.5,5.8c2.2,0.8,4.6,0.5,6.7,1.7c1.9,1,1.6-0.7,1.7-1.8c0.4-2.4-0.9-5,1-7.2
	C435.5,216.5,434.6,221,436,225.4z"/>
<path class="st4" d="M278.3,75c-1,0.3-2,0.7-3.1,1c-1.8-1.8-3,0.2-4.2,0.9c-12.1,6.9-24.1,13.9-36.2,20.9
	c-20.8,12-41.7,23.9-62.5,35.9c-18.4,10.6-36.8,21.2-55,32c-5.1,3-10.8,5.1-15,9.4c-4.2,0.7-7.3,3.9-11,5.6c-4.2,1.9-6.1,5.2-6,10
	c0.2,8.8,0,17.7,0,26.5c-0.6,0.3-1.3,0.7-1.9,1c0-10.7-0.1-21.4-0.1-32.1c0.4-2.8,2-4.8,4.5-6.2c35-20.1,69.9-40.3,104.9-60.5
	c25.5-14.7,50.9-29.4,76.3-44.1C271.9,73.5,275,71.4,278.3,75z"/>
<path class="st3" d="M45.2,219c1-0.4,2-0.7,3-1.1c1.2,1.1,2.3,2.3,3.6,3.2c2.2,1.5,4.7,5,6.7,3.6c1.6-1.1-1.6-4.4-2.4-6.8
	c0-0.3,0-0.7,0-1c4.1,0.9,5.5,5.4,9,7l0,0c0.7,3.3,3.7,6.7,0,10c0,1.1,0.2,2.3-1,3c-1.4-3.5-2.9-0.3-4.1,0.1
	c-2.6,0.9-4.9,2.8-7.9,1.3c-0.9-0.5-1.7-2.5-2.5-1.3c-0.7,1,1.1,2.1,2.2,2.7c1.4,0.9,2.9,1.4,4.6,0.5c2.5-1.2,5.1-2.2,7.7-3.4
	c0,5.3,0,10.6,0,16c-1,0-2,0-3,0c-0.7-1.1-2.2,0.4-2.6-0.6c-1.6-4.5-6.4-5.5-9.4-8.3c-1.4-3.9-0.1-8.2-2-12
	c-0.1-1.7,0.3-3.2,0.7-4.8C48.8,224,48.5,220.9,45.2,219z"/>
<path class="st5" d="M279.2,100c0-8,0-16-0.1-24c2.2,4.6,0.8,9.4,1,14.1c0.3,6.5,0.2,6.7,5.6,3.6c16.1-9.2,32.1-18.6,48.2-27.9
	c17.9-10.4,35.8-20.7,53.8-31.1c8.9-5.1,17.8-10.3,26.7-15.3c1.8-1,3.7-2.7,5.8-0.4c0,0,0,0,0,0c-0.6,0.2-1.3,0.2-1.9,0.5
	c-11.6,6.8-23.2,13.5-34.8,20.3c-11.4,6.7-22.9,13.4-34.3,20.1c-6.5,3.7-13,7.3-19.5,11C312.9,80.7,296.1,90.3,279.2,100z"/>
<path class="st6" d="M49.2,244c3,2.9,7.7,3.8,9.4,8.3c0.4,1.1,1.9-0.4,2.6,0.6c-0.6,1.4-2.2,2.3-2,4c-3.3-2.7-7.3-4-11-6
	c-0.7-1.2-1.9-1-3-1c-0.7-1.4-1.7-2.6-3.1-3c-4-1.2-4.2-4.2-3.8-7.5c0.6-5.2,1.4-10.4,2-15.6c0.4-3,2.8-3.8,5-4.9
	c3.3,1.9,3.5,5,2.7,8.1c-0.4,1.6-0.8,3.2-0.7,4.8C46.8,236.2,43.1,240.9,49.2,244z"/>
<path class="st7" d="M421.4,159.1c-0.4-0.2-0.9-0.4-1.3-0.6c2-3.2,0.9-6.7,1-10c1.4-35.5,0.7-71.1,1.2-106.6
	c0.1-6.9,0.7-13.9,0.8-20.8c1.8,1.6,1,3.8,1,5.7c0,43,0.1,86.1-0.2,129.1c0,3.3,2.8,1.6,3.2,3.2C425.3,159,423.4,159,421.4,159.1z"
	/>
<path class="st8" d="M421.4,159.1c1.9-0.1,3.9-0.1,5.8-0.2c6.4,3.3,7.5,5.5,6.2,12.7c-0.7,3.7-1,7.6-4.3,10.2
	c-3.2,0.7-5.2-0.1-5-3.8c0.7-1.4,2.5-2.2,2.4-4.1c0-1.3,0.2-2.9-1.4-3.3c-1.5-0.4-1.7,1-1.8,2.2c0,0.4-0.5,1.1-0.6,1.1
	c-0.7-0.2-0.7-0.9-0.8-1.5c-0.3-2.6-0.7-5.2-3.5-6.6c-3.7-2.8-3.7-3.5,0.2-5.4C419.6,159.9,420.5,159.5,421.4,159.1z"/>
<path class="st8" d="M42.2,206l-0.2-0.2l0.1-0.3c0-2.3,0-4.6,0-6.9c-1.3-1.9-3.9-3.1-3.1-6.1c0.7-2.9,4.3-5.9,6.6-4.3
	c3.2,2.1,6.6,1.7,9.8,2.7c3.5,1.1,5.5,3.4,5.9,7.1c-0.3,0.3-0.6,0.6-0.9,0.9c-0.3-1.4-0.9-3-2.4-1.5c-2.9,2.7-6.6,3.7-9.9,5.6
	c-0.6-0.3-1.2-0.6-1.8-0.9c-0.7-0.5-1.4-0.2-2.1,0C42.5,202.8,43.9,205.2,42.2,206z M42.8,191.2c-0.4,0.2-0.7,0.3-0.9,0.5
	c0.4,0.5,0.7,1.1,1.2,1.5c0.5,0.4,1,0,0.8-0.5C43.7,192.1,43.1,191.7,42.8,191.2z"/>
<path class="st9" d="M48.1,202.9c3.3-1.9,7-2.9,9.9-5.6c1.5-1.4,2.1,0.1,2.4,1.5c-0.3,1.2-0.4,2.3,0.8,3.1c0.3,5.4-3.8,9.2-4.9,14.1
	c0,0.3,0,0.7,0,1c0,0.3,0,0.7,0,1c-0.9-3.4-1.8-6.9-6.5-6.6c-0.4,0-0.8-0.9-1.2-1.4c-0.9-1.5-1.6-3.1-3.2-4c0.4-0.4,0.7-0.8,1.1-1.2
	C48.1,205.3,48.4,204.3,48.1,202.9z"/>
<path class="st10" d="M65.2,234c3.7-3.3,0.7-6.7,0-10c2.3,1.2,3.6,3.4,4.9,5.4c1.8,2.7,3.4,2.4,5.2-0.1c2.1-2.9,3.8-6.2,6.8-8.3
	c0.1,2.6,0.1,5.3,0.2,7.9c-0.4,0.4-0.7,0.8-1.1,1.2c0,1.3-0.8,2.1-1.5,3c-5.5,8.3-6,8.3-13.3,1.7C66.1,234.5,65.6,234.2,65.2,234z"
	/>
<path class="st11" d="M435.2,212c-1.9,2.2-0.6,4.8-1,7.2c-0.2,1.1,0.1,2.8-1.7,1.8c-2.1-1.1-4.5-0.8-6.7-1.7c-4.1-1.6-4.7-3-1.5-5.8
	c3.9-3.3,8-6.4,12-9.5C435.9,206.7,435.5,209.3,435.2,212z"/>
<path class="st12" d="M48.5,210c0.4,0.5,0.9,1.4,1.2,1.4c4.8-0.3,5.6,3.2,6.5,6.6c0.8,2.4,4,5.7,2.4,6.8c-2,1.4-4.5-2.1-6.7-3.6
	c-1.3-0.9-2.4-2.1-3.6-3.2c0-2-0.1-4.1-0.1-6.1C48.3,211.2,48.4,210.6,48.5,210z"/>
<path class="st10" d="M83.2,186c0,10.7,0.1,21.4,0.1,32.1c-0.1,0.8-0.2,1.5-1,2c0-10-0.1-19.9,0-29.9
	C82.3,188.7,81.8,187.1,83.2,186z"/>
<path class="st13" d="M45.2,250c1.1,0,2.3-0.2,3,1c-0.3,2.7-0.7,5.4-1,8c-2.2,0-3-2.4-4.9-2.9C43.3,254.1,44.2,252,45.2,250z"/>
<path class="st14" d="M82.3,220c0.7-0.4,0.9-1.2,1-2c0.6-0.3,1.3-0.7,1.9-1c0,3,0,5.9,0,8.9c-1.1,0.8-1.2,2.5-2.8,2.9
	c-0.1-2.6-0.1-5.3-0.2-7.9C82.2,220.6,82.2,220.3,82.3,220z"/>
<path class="st15" d="M424.1,178c-0.1,3.7,1.9,4.5,5,3.8c0.1,0.4,0.1,0.8,0.2,1.3c-2.4,2.6-4.7,3.6-7.1,0
	C422.6,181.3,422.9,179.5,424.1,178z"/>
<path class="st16" d="M48.5,210c-0.1,0.6-0.2,1.2-0.3,1.8c-2.9-1-5.1-2.7-6-5.8c1.7-0.8,0.2-3.2,2-4c0,1.4-0.9,3.1,1.1,4
	C46.9,206.9,47.6,208.5,48.5,210z"/>
<path class="st17" d="M56.3,217c0-0.3,0-0.7,0-1c4.9,0.6,7.1,4.1,9,8C61.7,222.3,60.4,217.9,56.3,217z"/>
<path class="st16" d="M42.1,198.6c0,2.3,0,4.6,0,6.9C40.7,203.2,40.8,200.9,42.1,198.6z"/>
<path class="st18" d="M61.1,201.9c-1.2-0.8-1-1.9-0.8-3.1c0.3-0.3,0.6-0.6,0.9-0.9C62.7,199.3,61.2,200.6,61.1,201.9z"/>
<path class="st19" d="M457.2,308c-0.8,0-1.6-0.2-2-1C456,307,456.8,307.2,457.2,308z"/>
<path class="st7" d="M423.2,20c-0.3-0.3-0.7-0.7-1-1C422.5,19.4,422.8,19.7,423.2,20z"/>
<path class="st20" d="M414.2,224c0.6,1,0.6,2-0.1,3c-8,5.7-16.7,10.1-25.2,15c-29.8,17.4-59.7,34.6-89.6,51.9c-26,15-52,30-78.1,45
	c-1.6,0.9-3.1,2-5,2.1c3.9-4.2,9.4-6.1,14.1-9c27.4-16.4,55-32.6,82.6-48.9c32.4-19.1,64.9-38.1,97.3-57.1
	C411.5,225.3,412.9,224.7,414.2,224z"/>
<path class="st21" d="M130.2,322c3.7-4.5,9.2-6.4,14-9.3c15.2-9.5,31-17.9,46.1-27.6c1.4,0.5,2.7,1.6,4.1-0.1l0.5,0l0.5,0
	c0,21.3,0,42.7,0,64c0,0.3,0,0.7,0,1c-3.5-0.3-3-2.9-3-5.2c0-17.4,0-34.9,0-52.3c0-1.5,0.9-3.8-0.7-4.5c-1.4-0.7-3,1-4.4,1.8
	c-17.6,10.2-35.2,20.5-52.8,30.7C133,321.2,131.8,322,130.2,322z"/>
<path class="st22" d="M421.4,308.1c-0.2-3.4-0.4-6.9,0.9-10.1l0.4-0.1l0.4,0.1c0,1,0.1,2.1,0.1,3.1C421.2,303,423.2,306,421.4,308.1
	z"/>
<path class="st23" d="M414.3,234c0.9,0.6,1.1,1.6,0.9,2.6c-0.2,1.5,0.7,3.1-0.6,4.4c-0.2-1.4-0.4-2.8-0.6-4.2
	C414.1,235.8,414.2,234.9,414.3,234z"/>
<path class="st24" d="M405.2,306.9c-1.6,1.6-3.3,1.5-5,0.2C401.9,305.8,403.5,306.1,405.2,306.9z"/>
<path class="st21" d="M195.2,350c0.3,0.3,0.7,0.7,1,1C195.9,350.7,195.5,350.3,195.2,350z"/>
<path class="st25" d="M279.3,207c10.1-5.1,19.7-11,29.4-16.7c1.3-0.8,2.6-1.4,4-2c1.4-0.5,2.3,0,2.4,1.5c0.1,1.3,0.1,2.7,0.1,4
	c0,22.5-0.1,45,0.1,67.4c0.1,4.5-1.5,7.1-5.2,9.2c-14,7.9-28,16-41.9,24c-14.2,8.2-28.5,16.4-42.7,24.6c-1.1,0.6-2.2,1.9-3.5,1.3
	c-1.4-0.7-0.8-2.4-0.8-3.6c0-12.7-0.1-25.3,0-38c0-2.7-0.2-5.3-1-7.9l0,0c1.2-0.8,1-2,1-3.2c0-8.3-0.1-16.6-0.1-25
	c0.5-2.7,2.8-3.5,4.8-4.7C243.7,227.8,261.8,218,279.3,207z M304.1,258c-1.5,1.2-1.3,2.8-0.4,3.9c0.6,0.7,1.7-0.4,2.5-1.1
	c1.1-1.3,1.3-2.5,0-3.8c-0.3,0.1-0.7,0.1-1,0.2C304.8,257.4,304.5,257.7,304.1,258z M234.2,274.5c0-8.6,0-17.3,0-25.9
	c0-1,0.8-2.7-0.8-2.8c-1.5-0.1-2.7,1.1-2.8,2.9c0,0.8,0,1.7,0,2.5c0,7,0,14,0,20.9c0,9.8,0,19.6,0,29.4c0,0.9-0.4,2.3,1,2.4
	c1.1,0.1,2.3-0.7,2.5-2c0.2-1.1,0.1-2.3,0.2-3.5C234.2,290.5,234.2,282.5,234.2,274.5z M253.6,270c0,5.6-0.1,11.3,0,16.9
	c0,1.3-0.9,3.5,1.1,3.7c1.7,0.1,2.6-1.6,2.6-3.6c-0.1-12.1,0-24.3-0.1-36.4c0-0.7,0.4-1.9-0.8-1.9c-0.7,0-1.5,0.5-2.1,1.1
	c-1.1,1-0.7,2.5-0.7,3.8C253.6,259.1,253.6,264.5,253.6,270z M250.6,268.4c0-7,0.1-14-0.1-21c0-1.1,1.4-3.4-1.2-3.5
	c-1.7,0-2.2,1.6-2.2,3.3c0,15,0,29.9,0,44.9c0,0.7-0.3,1.9,0.7,2.1c1,0.2,2.1-0.5,2.4-1.5c0.3-1.1,0.3-2.3,0.3-3.4
	C250.6,282.4,250.6,275.4,250.6,268.4z M240.6,276.3c0-6.5,0-12.9,0-19.4c0-1.1,0.8-3.1-0.9-3.2c-1.6-0.2-2.4,1.3-2.4,3.1
	c0,13.8,0,27.5,0,41.3c0,0.7-0.3,1.8,1,1.8c0.9,0,1.7-0.4,1.9-1.3c0.3-1.1,0.4-2.3,0.4-3.4C240.6,288.9,240.6,282.6,240.6,276.3z
	 M280.2,259.5c0,4.5,0,9,0,13.5c0,0.9-0.5,2.2,1.1,2.2c1,0,2-0.7,2.3-1.7c0.3-0.9,0.2-2,0.2-3c0-8,0.1-16-0.1-24
	c0-1.1,1.2-3.5-1.3-3.4c-1.9,0.1-2.3,1.9-2.3,3.8C280.3,251.2,280.2,255.4,280.2,259.5z M270.2,268.6c0,3.5,0,7,0,10.5
	c0,0.7-0.5,1.8,0.7,2.1c0.9,0.2,1.5-0.5,2.1-1c1.1-1,0.8-2.5,0.9-3.8c0-6.3,0.1-12.7,0-19c0-1.1,0.8-3-1.3-3
	c-1.6,0.1-2.5,1.4-2.4,3.2C270.3,261.2,270.2,264.9,270.2,268.6z M310.3,208.6c-0.2-1.5-1.2-1-2.1-0.5c-1.7,1-3.4,2-5.2,3
	c-6.3,3.7-12.7,7.3-19,11c-1,0.6-2.3,1.4-1.7,2.7c0.8,1.7,2,0.2,2.8-0.3c7.6-4.4,15.2-8.8,22.8-13.3
	C309,210.6,310.1,210.1,310.3,208.6z M310.2,201.8c-0.1-0.3,0-0.7-0.2-0.9c-0.8-0.9-1.6-0.1-2.2,0.3c-5.8,3.3-11.5,6.6-17.3,9.9
	c-2.3,1.3-4.6,2.6-6.9,4c-1,0.6-2,1.7-1.2,2.9c0.8,1.1,1.8-0.1,2.5-0.5c7.6-4.4,15.2-8.8,22.8-13.3
	C308.8,203.6,309.9,203.2,310.2,201.8z M267.2,272.4c0-3,0-6,0-8.9c0-0.8,0.6-2.2-1-2.2c-1,0-1.9,0.7-2.2,1.7
	c-0.2,0.8-0.2,1.6-0.2,2.4c0,5.5-0.1,10.9,0,16.4c0,1-0.7,2.8,0.9,2.9c1.5,0.1,2.6-1,2.6-2.9C267.1,278.7,267.2,275.6,267.2,272.4z
	 M290.2,260.5C290.2,260.5,290.2,260.5,290.2,260.5c0-2.1,0.2-4.3,0-6.4c-0.1-1.2,1.1-3.4-1.2-3.4c-2,0-2.2,2-2.2,3.8
	c0.1,4.8,0,9.6,0.1,14.4c0,0.9-0.8,2.6,1.2,2.5c1.2-0.1,2.1-1,2.1-2.4C290.2,266.1,290.2,263.3,290.2,260.5z M300.2,260.2
	c-0.5-1.1,1.2-3.6-1-3.7c-2.2-0.2-2.4,2.2-2.3,4.1c0,0.8-0.1,1.7,0,2.5c0.2,0.9-0.8,2.6,1.1,2.6c1.1,0,2.1-0.9,2.2-2.2
	C300.2,262.4,300.2,261.4,300.2,260.2z M278,229.2c1.6-0.7,2.7-1.5,2.5-3.4c-0.1-0.7,0.1-1.9-1.2-1.6c-1.6,0.4-2.6,1.5-2.3,3.3
	C277,228.2,276.8,229.2,278,229.2z M279.3,217c-1.4,0.6-2.6,1.3-2.3,3.2c0.1,0.7-0.2,1.9,1.1,1.6c1.5-0.3,2.6-1.3,2.4-3.1
	C280.4,218,280.5,217.1,279.3,217z M303.8,268.6c0.9-1.3,3.3-1.2,3.7-3.3c0-0.2-0.9-0.8-1-0.7c-1.3,1.1-3.5,1.2-3.9,3.3
	C302.5,268.4,303.1,268.7,303.8,268.6z M272.8,284.2c-1,0.7-2.6,0.9-3.3,2.3c-0.3,0.6,0.1,1,0.7,0.8c1.4-0.4,2.8-0.9,3.6-2.2
	C274.2,284.6,273.6,284.3,272.8,284.2z M267.9,288.3c-0.2-0.6-0.5-0.9-1-0.6c-1.2,0.7-2.9,0.8-3.3,2.4c-0.1,0.4,0.5,0.8,1,0.6
	C265.8,290.1,267.3,289.9,267.9,288.3z M256.7,293.3c-0.9,0.7-2.1,1.5-3.1,2.5c-0.4,0.4,0.2,1,0.7,0.8c1.4-0.4,2.6-1.2,3.5-2.4
	C258.1,293.8,257.5,293.5,256.7,293.3z M249.8,297.4c-1.1,0.7-2.6,1.1-3.2,2.6c-0.2,0.5,0.3,1,0.9,0.7c1.3-0.6,2.7-1.2,3.4-2.6
	C251,297.6,250.6,297.2,249.8,297.4z M300.9,269.6c0.2-0.7-0.1-1.1-0.7-0.9c-1.4,0.5-2.8,0.9-3.6,2.2c-0.3,0.5,0.3,1,0.7,0.8
	C298.7,271.4,300.1,270.8,300.9,269.6z M287.4,277.9c1-0.7,2.2-1.5,3.3-2.5c0.4-0.3-0.1-1.1-0.5-1c-1.5,0.2-2.6,1.3-3.6,2.3
	C286.3,277,286.6,277.5,287.4,277.9z M283.8,279.6c0.3-1-0.2-1.4-0.6-1.2c-1.4,0.4-2.6,1.2-3.4,2.4c-0.3,0.5,0.3,1,0.7,0.8
	C281.7,281,282.8,280.2,283.8,279.6z M231.5,310.1c0.8-1,2.8-0.9,3-2.7c0-0.1-0.9-0.4-1.3-0.2c-1.2,0.5-2.5,1.1-2.8,2.5
	C230.3,310.2,230.9,310.4,231.5,310.1z M240.9,304.1c0-0.7-0.4-1.2-0.9-0.9c-1.2,0.6-2.3,1.3-3.3,2.2c-0.4,0.3,0,1,0.5,0.9
	C238.7,305.9,240.1,305.4,240.9,304.1z"/>
<path class="st25" d="M279.2,115c17.9-10.1,35.8-20.3,53.7-30.4c3.9-2.2,4.3-2,4.3,2.6c0,23.6-0.1,47.3,0.1,70.9
	c0,3.8-2,5.6-4.9,7.3c-18.1,10.4-36.2,20.9-54.3,31.4c-17,9.7-34.1,19.4-51.1,29.2c-6.1,3.5-6.1,3.5-6.1-3.3c0-20.8-0.1-41.6,0-62.4
	c0.1-13.5-2.3-10,10.4-17.4C247.3,133.6,263.3,124.3,279.2,115z M240.3,194.2c-2.9-3.1-4.8-2.9-6.9,1.2c-3.9,7.3-5.5,15.3-7.2,23.3
	c-0.1,0.6,0.1,1.3,0.2,1.9c0.8-0.3,1.6-0.4,2.2-0.8c33.9-19.5,67.7-39.1,101.6-58.7c1.1-0.7,2.5-1.2,2.5-2.8
	c-0.1-6.5,0.2-13-0.4-19.5c-0.2-2.4-1.4,0-2.1,0.3c-1.2-0.5-1.3-1.8-1.9-2.8c-3.6-6.3-7.5-6.5-11.5-0.4c-1.4,2.2-2.4,4.7-3.5,7.1
	c-0.4,1-0.6,1.9-1.9,1.9c-0.2-2-0.9-3.9-1.9-5.6c-2.4-4.3-5.2-4.7-8.6-1.1c-2.2,2.4-3.5,5.3-4.3,8.4c-1.6,6.1-3.1,12.2-4.6,18.4
	c-5.6-1.1-9,1.7-11.7,6.1c-0.7,1.2-1.1,2.9-3,3c-0.5-0.8-1-1.7-1.6-2.5c-3.9-5.5-7-5.5-11.4-0.3c-2.1,2.5-3.1,5.4-4.4,8.3
	c-1.4-1-1.8-2.7-2.6-4.1c-2.8-4.8-5.8-5.1-9.5-0.7c-2.8,3.2-3.6,7.3-4.7,11.3C242.3,188.8,242.8,192,240.3,194.2z M241.2,147.8
	c0.9-0.5,1.2-0.7,1.5-0.8c13.6-7.9,27.2-15.8,40.9-23.7c1-0.6,2.3-1.3,1.3-2.6c-0.8-1.2-1.7,0.1-2.5,0.5
	c-10.9,6.3-21.9,12.5-32.7,18.9c-2.7,1.6-5.8,2.6-8,4.9c-0.4,0.4-0.7,1.1-0.8,1.7C240.8,147.1,241.1,147.5,241.2,147.8z
	 M285.2,132.5c-0.5-1.7-1.4-0.5-2.1-0.1c-13.4,7.7-26.7,15.4-40.1,23.1c-1.1,0.6-3.1,1.2-2.2,2.7c0.9,1.5,2.4-0.2,3.4-0.8
	c13-7.4,25.9-14.9,38.8-22.4C284,134.5,285.1,134,285.2,132.5z M235.8,161c-0.1-0.8,0.3-2.8-1.1-2.4c-2.1,0.5-4.6,1.5-4.2,4.6
	c0.1,1-0.5,3,1.1,2.7C233.7,165.4,236,164.3,235.8,161z M235.5,149.1c-0.1-0.4,0.7-2.5-0.9-2c-2,0.5-4.5,1.6-4.1,4.7
	c0.1,1-0.7,3,1.1,2.6C233.7,153.8,236.1,152.8,235.5,149.1z"/>
<path class="st26" d="M279.2,115c-15.9,9.3-31.9,18.6-47.8,27.9c-12.7,7.4-10.3,3.9-10.4,17.4c-0.1,20.8,0,41.6,0,62.4
	c0,6.8,0,6.8,6.1,3.3c17-9.7,34.1-19.5,51.1-29.2c2.2,3.2,0.4,6.8,1.1,10.2c-17.5,10.9-35.6,20.8-53.4,31.2c-2,1.2-4.4,1.9-4.8,4.7
	c-1.2,1.4-0.8,3.1-0.8,4.8c-0.1,6.8-0.1,13.5-0.2,20.3c-7.8,3.1-14.4,8.5-21.9,12.1c0-41.1,0-82.1,0-123.2c0-1.9,0.7-4-0.8-5.7
	c0.8-2.2,2.6-3.3,4.5-4.4c4.5-2.6,8.9-5.2,13.3-7.8c2.9-1.6,5.8-3.2,8.7-4.9c18.4-10.6,36.8-21.2,55.2-31.8
	C279.1,106.4,279.2,110.7,279.2,115z M219.2,188.5c0,12.5,0,25,0,37.4c0,0.7-0.5,1.6,0.6,2c0.1-0.6,0.3-1.3,0.3-1.9
	c0-24.6,0-49.3,0-73.9c0-0.7,0.5-1.6-0.6-2c-0.1,0.6-0.3,1.3-0.3,1.9C219.2,164.2,219.2,176.3,219.2,188.5z"/>
<path class="st25" d="M397.3,202c0,4.3-0.3,8.7,0.1,13c0.3,3.7-1.3,5.8-4.3,7.6c-10.9,6.3-21.8,12.6-32.7,18.9
	c-10.2,5.9-20.4,11.7-30.6,17.6c-3.6,2.1-4.4,1.9-4.4-2.2c-0.1-24,0-47.9-0.1-71.9c0-3.6,2.4-5.4,5-6.9
	c21.1-12.3,42.2-24.4,63.3-36.7c2.5-1.5,3.9-1.5,3.8,2c-0.1,4.5,0,9,0,13.5c-4.4,1.7-0.4,3.4,0,5.1c0,0.4,0,0.7-0.1,1.1
	c-3.9,1.4,0.2,2.6,0.1,4c0,8.3,0,16.7,0,25c-4.7-2.9-7.3-8.1-12-11c0-2.1,0-4.3-0.1-6.4c0-0.9,0.1-2.6-1.3-1.9
	c-2.4,1.3-2.5,0-2.7-1.6c-0.1-1.3,0.2-3.1-1.4-3.3c-1.6-0.2-2.2,1.6-2.9,2.9c-1.2,2-0.7,3.9,0.4,5.6c1.5,2.3,3.2,4.5,4.9,6.8
	c3.1,4.5,6,9,9.3,13.4C393.1,198.5,393.7,201.8,397.3,202z M334.2,182.1c-0.2-0.8-0.6-0.7-1-0.1c-1.9,0.9-3.4,2.1-2.8,4.6
	c0.2,0.8,0.6,1,1.4,0.7c2.1-0.7,2.8-2.1,2.6-4.2c5.6,1.1,8.6-3.8,12.9-5.7c0.7-0.3,1.6-1.2,1.1-1.9c-0.8-1.1-1.7-0.1-2.6,0.3
	C341.9,177.8,338.5,180.8,334.2,182.1L334.2,182.1z M355.4,173.1c4.3-2.5,8.5-5,12.8-7.5c0.7-0.4,2.1-0.9,1.4-2.1
	c-0.7-1.1-1.7-0.2-2.6,0.3c-3.9,2-7.4,4.9-11.7,6.2c-2.1,0-3.4,0.9-3.7,3c-0.1,0.8-0.2,1.8,0.8,2
	C353.8,175.2,354.7,174.2,355.4,173.1z M380.3,184.9c-4.2-6.3-10.4-7-17.9-1.9c-12.8,8.4-19.5,20.3-19.4,35.5
	c0.1,11.3,8.7,16.3,18.5,10.6c13-7.5,19.9-19.1,20.8-34.2C383.4,191.2,382.4,188,380.3,184.9z M391,150.3c0,0-0.7,0.2-1.3,0.5
	c-3.7,2.2-7.4,4.4-11,6.7c-0.3,0.2-0.5,0.9-0.4,1.3c0.3,0.9,1,0.6,1.6,0.3c3.4-2,6.8-4,10.3-6C390.7,152.7,391.1,152.2,391,150.3z
	 M376.7,159.9c-0.2-0.8,0.3-2.4-1.3-2c-1.4,0.3-2.6,1.4-2.4,3.1c0.1,0.7-0.2,1.9,1,1.7C375.4,162.5,376.7,161.7,376.7,159.9z"/>
<path class="st6" d="M397.3,202c-3.5-0.2-4.2-3.5-5.8-5.6c-3.2-4.4-6.2-8.9-9.3-13.4c1-0.7,2-1.3,3-2c4.7,2.9,7.3,8.1,12,11
	c5.5,2.4,10.7-0.2,16-1c1,0,2,0,3,0c1.1,0,2.3-0.1,3.4,0.1c2.4,0.5,3.6,2,3.6,4.5c0,2.5-1.4,4.2-3.8,4.3c-2.2,0.1-4.1,0.7-6.2,1.1
	C407.9,201,402.5,200.8,397.3,202z"/>
<path class="st11" d="M416.2,191c-1,0-2,0-3,0c-3.4,0.5-5.5-0.6-6.3-4.3c-0.6-3-2.5-5.8-3.1-8.8c-0.5-2.6-2.7-4.9-1.6-7.9
	c0.3,0,0.6-0.1,1-0.1c1.6-0.1,2.8,0.4,3.6,2c1.3,2.5,3.1,4.7,4,7.3c1.7,4.5,4.6,6.5,9.5,5.7C420.1,187.8,418.1,189.4,416.2,191z"/>
<path class="st27" d="M279.2,100c16.8-9.7,33.6-19.4,50.5-29c6.5-3.7,13-7.3,19.5-11c0.3,0.3,0.7,0.6,1,1
	c-19.3,11.1-38.5,22.2-57.8,33.3c-4,2.3-8.1,4.5-12.2,6.8C279.9,100.7,279.5,100.3,279.2,100C279.2,100,279.2,100,279.2,100z"/>
<path class="st28" d="M350.2,61c-0.3-0.3-0.7-0.6-1-1c11.4-6.7,22.9-13.4,34.3-20.1c11.6-6.8,23.2-13.6,34.8-20.3
	c0.5-0.3,1.3-0.4,1.9-0.5c0,0.3,0,0.7,0,1c-0.3,0.3-0.7,0.7-1,1C396.2,34.3,373.2,47.6,350.2,61z"/>
<path class="st29" d="M279.2,100c0.3,0.3,0.7,0.7,1,1c-0.4,0.4-0.8,0.7-1.2,1.1c-18.4,10.6-36.8,21.2-55.2,31.8
	c-2.9,1.7-5.8,3.3-8.7,4.9c-0.3-0.3-0.6-0.5-1-0.8c14-8.2,28.1-16.2,42.1-24.6c7.4-4.4,15.3-7.8,22-13.3
	C278.6,100,278.9,100,279.2,100z"/>
<path class="st30" d="M424.1,178c-1.2,1.5-1.5,3.3-1.9,5c-0.3,0-0.6-0.1-1-0.1c-5.9-4.7-7-11.5-2.7-17.3c2.8,1.4,3.1,4,3.5,6.6
	c0.1,0.6,0,1.3,0.8,1.5c0.1,0,0.6-0.7,0.6-1.1c0.1-1.2,0.2-2.6,1.8-2.2c1.6,0.4,1.3,2,1.4,3.3C426.5,175.8,424.8,176.6,424.1,178z"
	/>
<path class="st31" d="M403.2,170c-0.3,0-0.6,0-1,0.1c-2.3,0-3.1-2.4-4.9-3c0.1-1.3-3.9-2.6-0.1-4c0.3,0.5,0.9,1.2,1.3,0.4
	c0.4-0.8-0.6-1.2-1.2-1.5c-0.4-1.7-4.4-3.4,0-5.1C403.4,158.2,406.8,165.6,403.2,170z"/>
<path class="st32" d="M198.2,280c7.5-3.6,14.1-8.9,21.9-12.1c0,1,0,2,0.1,3l0,0c-6.7,2.6-12.4,6.9-18.7,10.2c-1.7,0.9-3,2.6-5.2,2.8
	l0,0c0-1,0-2,0.1-3C197.1,281,197.8,280.8,198.2,280L198.2,280z"/>
<path class="st33" d="M195.2,349c0-21.3,0-42.7,0-64c0.3-0.4,0.7-0.7,1-1.1l0,0c0,20,0,39.9-0.1,59.9
	C196.2,345.6,196.9,347.6,195.2,349z"/>
<path class="st5" d="M419.2,21c0.3-0.3,0.7-0.7,1-1C419.9,20.3,419.5,20.7,419.2,21z"/>
<path class="st34" d="M173.2,184.3c0,9-0.1,18,0,27c0,2.9-1.1,4.6-3.5,6c-20.6,11.9-41.1,23.8-61.7,35.7c-4.1,2.4-4.8,2-4.8-2.7
	c0-17.8,0-35.6-0.1-53.5c0-3.3,1.4-5.3,4-6.8c20.7-11.9,41.5-23.8,62.2-35.9c3-1.7,3.8-1,3.8,2.1
	C173.2,165.6,173.2,174.9,173.2,184.3z M166.2,171c1.3-0.2,2.5-0.4,1-2c0-0.7,1.1-2.4-0.7-1.6c-4.3,2.1-8.9,3.9-12.3,7.5
	c-7.2,2.5-13.2,7.3-19.9,10.7c-1,0.5-1.2,1.5-0.1,2.3c-0.1,0.7-1.3,2.2,0.8,1.6c1.4-0.4,2.6-1.5,4.2-1.6c-0.5,1.4-1.8,1.8-2.9,2.5
	c-0.8,0.6-2.8,0.6-2.2,2c0.5,1,1.9-0.8,3.1-0.5c-0.4,1.2-1.4,1.7-2.5,2.3c-0.4,0.2-0.9,0.9-0.8,1c0.4,0.8,1.1,0.4,1.6,0
	c4.8-3.3,10.6-5.1,14.8-9.3c2.7-0.7,5.3-1.5,7-4c3.4-0.9,6.4-2.6,9.2-4.6c0.5-0.4,2-0.5,1.1-1.6c-0.3-0.3-1.5,0.1-2.3,0.2
	c0.4-0.9,1.1-1.5,2-2c0.5-0.3,1.2-0.7,0.4-1.3c-0.2-0.2-0.9,0.2-1.3,0.3c0-0.3,0-0.6,0-1C166.2,171.7,166.2,171.4,166.2,171z
	 M152.2,204c-2.8-5.7-7.1-7.1-12.3-3.7c-1.7,1.1-3.1,2.5-4.6,3.8c-0.6-0.3-1.3-0.4-1.7-0.8c-4.6-5-5.6-5.1-11.2-1.3
	c-5.8,3.9-8,10-8.9,16.5c-0.7,5.7,4.7,8.8,9.9,6c1.3-0.7,2.5-1.5,3.8-2.3c1.8,9.6,6.7,11.9,14.5,6.2
	C149.8,222.3,153.2,214.1,152.2,204c0.3,0.4,0.7,0.7,0.9,1.2c0.6,1.6-0.9,4.5,0.9,4.8c2.6,0.5,4.2-2.2,5.6-4.2
	c0.9-1.3,1.3-3,1.6-4.6c0.4-1.9-0.2-3.6-2-4.6c-1.6-0.9-2.8,0.3-4,1.1C152.9,199.2,151.8,201.3,152.2,204z M130.1,185
	c0.6-0.4,1.1-0.8,1.7-1.1c5.9-3.4,11.8-6.7,17.7-10.1c5.7-3.3,11.4-6.7,17.2-10.1c0.7-0.4,1.5-1.1,1-1.9c-0.7-1-1.4-0.1-2.1,0.3
	c-10.3,6-20.7,12-31,18c-1.7,1-3.4,2-5.1,3.1c-0.4,0.2-0.5,0.8-0.7,1.2C129.2,184.6,129.7,184.8,130.1,185z"/>
<path class="st35" d="M173.2,253.1c0,8.8-0.1,17.6,0.1,26.5c0.1,3.4-1.1,5.7-4,7.4c-20,11.5-40,23-60,34.5c-0.6,0.3-1.2,0.6-1.8,0.9
	c-3.4,2.2-4.4,0.6-4.2-2.8c0.1-1.5,0-3,0-4.5c0-16.3,0.1-32.6-0.1-48.9c0-3.5,1.3-5.6,4.2-7.2c19.7-11.3,39.4-22.7,59.2-34
	c6.7-3.8,6.7-3.8,6.7,3.7C173.2,236.8,173.2,245,173.2,253.1z M114.2,283.9c1.6-1.2,2.1-2.7,2-4.7c-0.1-5,0-10-0.1-14.9
	c0-1.3,0.8-3.7-1.2-3.7c-1.7,0-3.8,1.3-3.8,3.9c0,3.8-0.2,7.6,0,11.4c0.2,3-1.1,6.3,1,9.1c-0.3,0.8-1,1.5-1,2.3
	c-0.1,8.1-0.1,16.3-0.1,24.4c0,1.8,0.6,2.4,2.4,1.4c2-1.1,2.6-2.6,2.6-4.9c-0.1-6.8,0-13.6-0.1-20.4
	C116.1,286.2,116.6,284.3,114.2,283.9z M155.2,269c0.8-1.3,1-2.8,1-4.3c0-8,0-16,0-24c0-1.1,0.6-2.6-0.8-3.1c-1.4-0.5-2.3,1-3.3,1.8
	c-1.4,1.1-0.8,2.8-0.8,4.2c0,9.2,0,18.3,0,27.5c0,5.1-0.1,10.3-0.1,15.4c0,1.3-1,3.5,0.9,3.8c1.8,0.3,3.8-1.2,3.8-3.2
	C155.9,281,157.1,274.9,155.2,269z M132.2,285c-2.2,4.6-0.6,9.4-1,14.1c-0.1,1-0.7,2.6,0.7,3c0.8,0.2,2-0.8,3-1.4
	c0.9-0.6,1.3-1.5,1.3-2.5c0-4.1,0-8.2,0-12.4c0-1.2-0.8-1.7-1.9-1.9c1.3-1.1,2.1-2.2,2.1-4.2c-0.1-9.1,0-18.2-0.1-27.3
	c0-1.1,0.5-2.7-1.1-2.9c-1.3-0.2-2.5,0.7-3.4,1.8c-0.7,1-0.5,2.2-0.5,3.4c-0.2,9.8,0.4,19.5-0.4,29.3
	C130.8,284.8,131.5,284.9,132.2,285z M161.4,239.2c-0.1,14.3-0.2,28.6-0.2,42.9c0,0.9-0.4,2.2,1,2.5c1.1,0.2,1.8-0.7,2.4-1.4
	c1.1-1.3,0.7-2.8,0.7-4.3c0-12.1,0-24.3,0-36.4c0-1.6,0.6-3.4-1.1-4.6c1.6-1.1,2.5-2.6,1.8-4.6c-0.4-1.2-1.3-1.2-2.4-0.9
	c-2.1,0.6-2.6,2.2-2.5,4.2C161.2,237.5,160.3,238.4,161.4,239.2z M144.2,255c3-2.2,1.8-5.3,1.9-8.2c0-1.2,0.7-3.1-1.1-3.3
	c-1.6-0.2-3.6,0.9-3.7,2.6c-0.1,3.3-1.4,6.9,0.9,10c-1.2,1.4-1.2,3-1.2,4.7c0,10.8,0,21.6,0,32.3c0,1-0.7,2.6,0.7,3
	c1.3,0.4,2.4-0.7,3.4-1.7c0.9-0.9,0.9-2.1,0.9-3.3c0-11.1,0-22.2,0-33.3C146.1,256.5,146.1,255.1,144.2,255z M122.3,302.1
	c-1.3,1.7-2.1,3.8-0.5,5.3c1.1,1.1,3-0.3,3.6-1.4c1-1.7,2.1-4-1.2-5c1.2-1.2,2-2.3,2-4.2c-0.1-12.8,0-25.5-0.1-38.3
	c0-1.2,0.5-3-1.4-3.2c-1.7-0.2-2.8,1.1-3.3,2.6c-0.4,1.1-0.3,2.3-0.3,3.4c0,12.1,0,24.2,0,36.3C121.2,299.1,120.6,300.9,122.3,302.1
	z"/>
<path class="st36" d="M278.3,100.1c-6.7,5.5-14.7,8.9-22,13.3c-13.9,8.3-28,16.4-42.1,24.6c-4.6,2.6-9.1,5.2-13.7,7.8
	c-2.9,1.6-4.7,4-5.4,7.2c-0.3,0-0.6,0-0.9,0c-1.6,1.3-1,3.1-1,4.7c0,39.9,0,79.8,0,119.6c0,1.6-0.6,3.4,0.9,4.7c0,0.3,0,0.7,0,1
	c0,0,0,0,0,0c-0.7,0-1.3,0-2,0c0-42.2,0.1-84.3-0.1-126.5c0-6.3,2.4-10.3,7.7-13.3c17.9-10.2,35.7-20.5,53.6-30.8
	c7-4.1,14.1-8.1,21.1-12.3C275.8,99.4,277,98.3,278.3,100.1z"/>
<path class="st37" d="M82.4,228.9c1.5-0.4,1.6-2.1,2.8-2.9c0,37.1,0,74.2,0.1,111.4c0,1.9-0.8,4,0.9,5.7c0,0.7,0,1.4,0,2.1
	c-1-0.3-1.9-0.7-2.9-1c-0.9-2.5-1.1-5.2-1.1-7.8c0-33.5,0-67,0-100.4c0-1.9,0.9-4-1-5.6C81.6,229.7,82,229.3,82.4,228.9z"/>
<path class="st38" d="M102.2,175c4.3-4.3,10-6.4,15-9.4c18.3-10.8,36.6-21.4,55-32c20.8-12,41.7-23.9,62.5-35.9
	c12.1-6.9,24.1-14,36.2-20.9c1.2-0.7,2.4-2.7,4.2-0.9c-57.7,33.3-115.3,66.5-173,99.8C102.2,175.5,102.2,175.3,102.2,175z"/>
<path class="st39" d="M102.2,175c0,0.3,0,0.5,0,0.8c-3.4,2-6.8,4.1-10.3,5.9c-3.8,2-5.5,5.1-5.6,9.2c-0.1,5.8,0.1,11.5,0.2,17.3
	c0,3.3-0.1,6.5-0.1,9.8c0,13.4-0.1,26.9-0.1,40.3c0,28.2-0.1,56.4-0.1,84.7c-1.7-1.7-0.9-3.8-0.9-5.7c-0.1-37.1-0.1-74.2-0.1-111.4
	c0-3,0-5.9,0-8.9c0-8.8,0.2-17.7,0-26.5c-0.1-4.8,1.8-8.1,6-10C94.9,178.9,98,175.7,102.2,175z"/>
<path class="st40" d="M86.4,218c0-3.3,0.1-6.5,0.1-9.8c1.4,1.5,2.6,2.6,2.7-0.7c0.1-1.4-0.4-3.7,1.4-3.7c2,0.1,3.3,2,3.5,4.2
	c0.6,4.7-3.1,7.5-5,11c-0.6-0.3-1.3-0.6-1.9-0.9C87,218,86.7,218,86.4,218z"/>
<path class="st41" d="M192.2,283c0.7,0,1.3,0,2,0c0,0.7,0,1.3,0.1,2c-1.3,1.6-2.7,0.6-4.1,0.1C190.9,284.4,191.6,283.7,192.2,283z"
	/>
<path class="st42" d="M87.2,218.1c0.6,0.3,1.3,0.6,1.9,0.9c-0.5,0.8-0.7,2.3-1.5,2C86.7,220.6,87.4,219.1,87.2,218.1z"/>
<path class="st43" d="M423.1,297.9l-0.4-0.1l-0.4,0.1c1-15.4,0.5-30.9,3.1-46.2c0.1-0.7-0.2-2,0.8-2c1.1,0,0.7,1.2,0.9,1.9
	c2,14,4.8,27.9,8.7,41.5c0.9,3.2,0.1,4.2-3.1,4.1C429.5,297.2,426.2,295.6,423.1,297.9z"/>
<path class="st44" d="M64.2,253c1.6,0.5,5-1.6,4,2.8c-0.1,0.5,1.8,1.1,3,1.2c1.1,0.1,2.6-0.3,2.8,1.3c0.2,1.6-1.1,2.1-2.3,2.9
	c-2.3,1.6-4.5,0-6.7-0.2c-1.5-1.2-2.9-2.6-4.8-3c-0.3-0.3-0.7-0.7-1-1c-0.2-1.8,1.4-2.6,2-4C62.2,253,63.2,253,64.2,253z"/>
<path class="st45" d="M59.2,257c0.3,0.3,0.7,0.7,1,1c-1.4,1.6-3.7,1.6-5.3,2.8c-1.2,0-2.3,0-3.5,0c-0.8-0.3-1.5-0.7-2.3-1
	c-0.5-0.7-1.2-0.9-2-0.8l0,0c0.3-2.7,0.7-5.4,1-8C51.9,253,55.9,254.3,59.2,257z"/>
<path class="st46" d="M51.5,260.8c1.2,0,2.3,0,3.5,0c-0.9,2.3-2.5,1-3.9,0.7c0,0,0-0.3,0.1-0.4C51.2,261,51.4,260.9,51.5,260.8z"/>
<path class="st47" d="M52.3,283.1c-1.7-1.4-1.1-3.2-0.9-4.9c1.5,0.5,0.5,1.7,0.7,2.5C52.3,281.5,52.3,282.3,52.3,283.1L52.3,283.1z"
	/>
<path class="st48" d="M36.3,348c-0.7,1.1-2,0.2-2.9,0.8c-0.1-0.7-0.4-1.7,0.6-2C35,346.6,35.8,347,36.3,348z"/>
<path class="st25" d="M60.4,337.9c-0.5,0.7-1.3,0.9-2.1,1c-0.2-0.9-0.6-1.8,0.9-1.9C59.6,337.3,60,337.6,60.4,337.9L60.4,337.9z"/>
<path class="st13" d="M47.2,259c0.8-0.1,1.5,0.1,2,0.8C48.4,260,47.7,259.7,47.2,259z"/>
<path class="st49" d="M60.3,337.9c-0.4-0.3-0.7-0.5-1.1-0.8C59.8,337,60.3,337.2,60.3,337.9z"/>
<path class="st50" d="M64.2,237c-2.6,1.1-5.2,2.1-7.7,3.4c-1.8,0.9-3.2,0.3-4.6-0.5c-1.1-0.7-2.9-1.7-2.2-2.7
	c0.9-1.2,1.6,0.9,2.5,1.3c3,1.5,5.3-0.4,7.9-1.3C61.4,236.7,62.9,233.5,64.2,237L64.2,237z"/>
<path class="st51" d="M49.2,244c-6.1-3.1-2.5-7.8-2-12C49.1,235.8,47.8,240.1,49.2,244z"/>
<path class="st52" d="M45.3,206c-2-0.9-1.1-2.6-1.1-4c0.7-0.2,1.4-0.5,2.1,0c0,0.9,0,1.9,0.1,2.8C46,205.2,45.6,205.6,45.3,206z"/>
<path class="st53" d="M46.3,204.8c0-0.9,0-1.9-0.1-2.8c0.6,0.3,1.2,0.6,1.8,0.9C48.4,204.3,48.1,205.3,46.3,204.8z"/>
<path class="st54" d="M42.8,191.2c0.4,0.5,0.9,0.9,1.1,1.5c0.2,0.5-0.3,0.9-0.8,0.5c-0.5-0.4-0.8-1-1.2-1.5
	C42.1,191.6,42.3,191.4,42.8,191.2z"/>
<path class="st55" d="M62.2,358.1c0.4,0.3,0.7,0.6,1.1,0.9C63,358.7,62.6,358.4,62.2,358.1z"/>
<path class="st56" d="M194.3,285c0-0.7,0-1.3-0.1-2l0,0c1.4-1.1,1-2.7,1-4.2c0-42,0-83.9,0-125.9c0.7-3.3,2.5-5.6,5.4-7.2
	c4.6-2.6,9.1-5.2,13.7-7.8c0.3,0.3,0.6,0.5,1,0.8c-4.4,2.6-8.9,5.2-13.3,7.8c-1.9,1.1-3.7,2.2-4.5,4.4c-0.1,0.3-0.2,0.5-0.2,0.8
	c-1,0.9-0.9,2.1-0.9,3.2c0,41.9,0.1,83.9,0.1,125.8c0,1,0,2-0.1,3c-0.3,0.4-0.7,0.7-1,1.1l-0.5,0L194.3,285z"/>
<path class="st57" d="M234.2,274.5c0,8,0,16,0,23.9c0,1.2,0.1,2.4-0.2,3.5c-0.3,1.2-1.4,2.1-2.5,2c-1.4-0.1-0.9-1.5-1-2.4
	c0-9.8,0-19.6,0-29.4c0-7,0-14,0-20.9c0-0.8,0-1.7,0-2.5c0.1-1.8,1.2-3,2.8-2.9c1.7,0.1,0.8,1.9,0.8,2.8
	C234.2,257.3,234.2,265.9,234.2,274.5z"/>
<path class="st58" d="M253.6,270c0-5.5,0-11,0-16.4c0-1.3-0.4-2.7,0.7-3.8c0.6-0.5,1.4-1.1,2.1-1.1c1.2,0,0.8,1.2,0.8,1.9
	c0,12.1,0,24.3,0.1,36.4c0,2-0.8,3.7-2.6,3.6c-2-0.2-1-2.4-1.1-3.7C253.5,281.3,253.6,275.7,253.6,270z"/>
<path class="st59" d="M250.6,268.4c0,7,0,14,0,21c0,1.2,0,2.4-0.3,3.4c-0.3,1-1.3,1.7-2.4,1.5c-1-0.2-0.7-1.3-0.7-2.1
	c0-15,0-29.9,0-44.9c0-1.7,0.4-3.4,2.2-3.3c2.5,0.1,1.1,2.3,1.2,3.5C250.7,254.4,250.6,261.4,250.6,268.4z"/>
<path class="st60" d="M240.6,276.3c0,6.3,0,12.6,0,18.9c0,1.1-0.1,2.3-0.4,3.4c-0.2,0.8-1.1,1.3-1.9,1.3c-1.3,0-1-1.1-1-1.8
	c0-13.8,0-27.5,0-41.3c0-1.8,0.8-3.3,2.4-3.1c1.7,0.2,0.9,2.1,0.9,3.2C240.6,263.4,240.6,269.9,240.6,276.3z"/>
<path class="st61" d="M280.2,259.5c0-4.2,0.1-8.3,0-12.5c0-1.9,0.4-3.7,2.3-3.8c2.5-0.1,1.3,2.2,1.3,3.4c0.1,8,0.1,16,0.1,24
	c0,1,0,2-0.2,3c-0.3,1-1.2,1.7-2.3,1.7c-1.6,0-1.1-1.4-1.1-2.2C280.2,268.5,280.2,264,280.2,259.5z"/>
<path class="st62" d="M270.2,268.6c0-3.7,0.1-7.3,0-11c0-1.8,0.8-3.1,2.4-3.2c2.1-0.1,1.3,1.9,1.3,3c0.1,6.3,0,12.7,0,19
	c0,1.3,0.3,2.7-0.9,3.8c-0.6,0.6-1.2,1.3-2.1,1c-1.1-0.3-0.7-1.3-0.7-2.1C270.2,275.6,270.2,272.1,270.2,268.6z"/>
<path class="st63" d="M310.3,208.6c-0.2,1.5-1.3,2-2.3,2.6c-7.6,4.4-15.2,8.9-22.8,13.3c-0.8,0.4-1.9,2-2.8,0.3
	c-0.6-1.3,0.6-2.1,1.7-2.7c6.3-3.7,12.7-7.3,19-11c1.7-1,3.4-2,5.2-3C309.1,207.6,310,207.1,310.3,208.6z"/>
<path class="st63" d="M310.2,201.8c-0.3,1.3-1.4,1.8-2.4,2.4c-7.6,4.4-15.2,8.9-22.8,13.3c-0.7,0.4-1.7,1.6-2.5,0.5
	c-0.8-1.2,0.2-2.2,1.2-2.9c2.3-1.4,4.6-2.7,6.9-4c5.8-3.3,11.5-6.7,17.3-9.9c0.6-0.3,1.4-1.2,2.2-0.3
	C310.2,201.1,310.2,201.5,310.2,201.8z"/>
<path class="st64" d="M267.2,272.4c0,3.1,0,6.3,0,9.4c0,1.8-1.1,3-2.6,2.9c-1.6-0.1-0.8-1.9-0.9-2.9c0-5.5,0-10.9,0-16.4
	c0-0.8-0.1-1.7,0.2-2.4c0.3-1,1.3-1.7,2.2-1.7c1.6,0,1,1.4,1,2.2C267.2,266.5,267.2,269.4,267.2,272.4z"/>
<path class="st65" d="M290.2,260.5c0,2.8,0,5.6,0,8.4c0,1.4-0.9,2.3-2.1,2.4c-2,0.2-1.2-1.6-1.2-2.5c-0.1-4.8,0-9.6-0.1-14.4
	c0-1.8,0.2-3.8,2.2-3.8c2.3,0,1,2.2,1.2,3.4C290.4,256.2,290.2,258.3,290.2,260.5C290.2,260.5,290.2,260.5,290.2,260.5z"/>
<path class="st0" d="M220.2,271c0-1,0-2-0.1-3c0.1-6.8,0.1-13.5,0.2-20.3c0-1.6-0.5-3.3,0.8-4.8c0,8.3,0.1,16.6,0.1,25
	C221.2,269,221.3,270.2,220.2,271z"/>
<path class="st66" d="M300.2,260.2c0,1.3,0,2.2,0,3.2c-0.1,1.4-1.1,2.2-2.2,2.2c-1.9,0-0.9-1.7-1.1-2.6c-0.1-0.8,0-1.6,0-2.5
	c-0.1-1.9,0.1-4.3,2.3-4.1C301.4,256.6,299.7,259.1,300.2,260.2z"/>
<path class="st67" d="M278,229.2c-1.2,0-0.9-0.9-1-1.7c-0.2-1.8,0.8-2.9,2.3-3.3c1.3-0.3,1.1,0.8,1.2,1.6
	C280.7,227.7,279.5,228.5,278,229.2z"/>
<path class="st68" d="M279.3,217c1.2,0.1,1.1,1,1.2,1.7c0.2,1.8-0.9,2.8-2.4,3.1c-1.3,0.3-1-0.9-1.1-1.6
	C276.7,218.4,277.9,217.6,279.3,217z"/>
<path class="st69" d="M303.8,268.6c-0.7,0.1-1.3-0.2-1.2-0.6c0.4-2.1,2.6-2.2,3.9-3.3c0.1-0.1,1,0.5,1,0.7
	C307.2,267.4,304.8,267.3,303.8,268.6z"/>
<path class="st70" d="M306.2,260.8c-0.7,0.7-1.8,1.8-2.5,1.1c-0.9-1.1-1.1-2.7,0.4-3.9c0.4-0.3,0.7-0.5,1.1-0.8
	c0.3-0.1,0.7-0.1,1-0.2C306.2,258.3,306.2,259.5,306.2,260.8z"/>
<path class="st71" d="M272.8,284.2c0.8,0.1,1.3,0.4,1,0.9c-0.8,1.4-2.2,1.8-3.6,2.2c-0.6,0.2-1-0.3-0.7-0.8
	C270.3,285,271.9,284.9,272.8,284.2z"/>
<path class="st72" d="M267.9,288.3c-0.5,1.5-2.1,1.8-3.3,2.4c-0.5,0.2-1.1-0.1-1-0.6c0.4-1.7,2.1-1.7,3.3-2.4
	C267.3,287.5,267.7,287.7,267.9,288.3z"/>
<path class="st73" d="M256.7,293.3c0.9,0.1,1.4,0.5,1.1,1c-0.9,1.2-2.1,2-3.5,2.4c-0.5,0.1-1.1-0.4-0.7-0.8
	C254.6,294.9,255.8,294.1,256.7,293.3z"/>
<path class="st74" d="M249.8,297.4c0.7-0.1,1.2,0.3,1,0.7c-0.6,1.4-2.1,2-3.4,2.6c-0.5,0.3-1.1-0.3-0.9-0.7
	C247.2,298.5,248.8,298.1,249.8,297.4z"/>
<path class="st75" d="M300.9,269.6c-0.8,1.3-2.1,1.8-3.5,2.2c-0.5,0.1-1-0.3-0.7-0.8c0.8-1.4,2.2-1.8,3.6-2.2
	C300.7,268.5,301,268.9,300.9,269.6z"/>
<path class="st74" d="M287.4,277.9c-0.8-0.3-1.2-0.8-0.8-1.2c1-1,2.1-2.1,3.6-2.3c0.5-0.1,0.9,0.7,0.5,1
	C289.6,276.3,288.4,277.1,287.4,277.9z"/>
<path class="st72" d="M283.8,279.6c-1,0.6-2.1,1.4-3.4,2c-0.4,0.2-1-0.3-0.7-0.8c0.8-1.2,2-2,3.4-2.4
	C283.6,278.2,284,278.6,283.8,279.6z"/>
<path class="st76" d="M231.5,310.1c-0.6,0.3-1.2,0.1-1.1-0.4c0.3-1.4,1.6-2,2.8-2.5c0.3-0.2,1.3,0.2,1.3,0.2
	C234.3,309.2,232.3,309.1,231.5,310.1z"/>
<path class="st69" d="M240.9,304.1c-0.8,1.3-2.3,1.8-3.6,2.2c-0.5,0.2-0.9-0.5-0.5-0.9c1-0.8,2.1-1.6,3.3-2.2
	C240.6,303,240.9,303.5,240.9,304.1z"/>
<path class="st77" d="M306.2,260.8c0-1.3,0-2.5,0-3.8C307.5,258.3,307.3,259.5,306.2,260.8z"/>
<path class="st77" d="M305.2,257.2c-0.4,0.3-0.7,0.5-1.1,0.8C304.5,257.7,304.8,257.4,305.2,257.2z"/>
<path class="st78" d="M292.1,164.9c1.5-6.1,2.9-12.3,4.6-18.4c0.8-3.1,2.1-6,4.3-8.4c3.4-3.6,6.2-3.2,8.6,1.1c1,1.8,1.7,3.6,1.9,5.6
	c0.6,1.5,1.1,3.1,1.8,4.6c1,2.4,0.9,5.8,4.1,6.2c3.2,0.4,5.3-2.2,6.9-4.8c0.9-1.4,1.7-2.8,2.3-4.3c1-2.6,1.8-5.3,3.6-7.5
	c0.7-0.4,1.9-2.7,2.1-0.3c0.5,6.5,0.3,13,0.4,19.5c0,1.6-1.3,2.1-2.5,2.8c-33.9,19.6-67.7,39.1-101.6,58.7c-0.7,0.4-1.5,0.6-2.2,0.8
	c-0.1-0.6-0.3-1.3-0.2-1.9c1.7-8,3.4-16,7.2-23.3c2.2-4.1,4-4.2,6.9-1.2c0.8,1.5,1.4,3,2.3,4.4c2.8,4.4,6.1,4.6,9.7,0.8
	c1.3-1.4,2.3-2.9,2.8-4.6c1.6-5,3.2-10.1,4.9-15.1c1.2-2.9,2.3-5.9,4.4-8.3c4.4-5.3,7.5-5.2,11.4,0.3c0.6,0.8,1.1,1.7,1.6,2.5
	c4.6,3,6.8,2.8,10.2-0.9C289.8,170.8,290.8,167.8,292.1,164.9z"/>
<path class="st79" d="M260,179.6c-1.6,5.1-3.2,10.1-4.9,15.1c-0.6,1.8-1.5,3.3-2.8,4.6c-3.6,3.8-6.9,3.6-9.7-0.8
	c-0.9-1.4-1.5-3-2.3-4.4c2.5-2.1,2-5.4,2.8-8.1c1.2-4,2-8,4.7-11.3c3.7-4.4,6.7-4.1,9.5,0.7C258.2,176.9,258.6,178.6,260,179.6z"/>
<path class="st80" d="M330.2,139.1c-1.8,2.2-2.6,5-3.6,7.5c-0.6,1.6-1.4,3-2.3,4.3c-1.7,2.5-3.7,5.2-6.9,4.8
	c-3.1-0.4-3.1-3.8-4.1-6.2c-0.6-1.5-1.2-3.1-1.8-4.6c1.3,0,1.5-0.9,1.9-1.9c1-2.4,2.1-4.9,3.5-7.1c3.9-6.1,7.9-5.9,11.5,0.4
	C328.8,137.3,328.9,138.6,330.2,139.1z"/>
<path class="st81" d="M241.2,147.8c-0.1-0.3-0.5-0.7-0.4-1.2c0.1-0.6,0.4-1.3,0.8-1.7c2.3-2.3,5.3-3.3,8-4.9
	c10.9-6.4,21.8-12.6,32.7-18.9c0.8-0.4,1.7-1.7,2.5-0.5c1,1.3-0.3,2-1.3,2.6c-13.6,7.9-27.2,15.8-40.9,23.7
	C242.4,147.1,242.1,147.3,241.2,147.8z"/>
<path class="st82" d="M285.2,132.5c-0.1,1.5-1.2,2-2.2,2.6c-12.9,7.5-25.8,15-38.8,22.4c-1,0.6-2.4,2.3-3.4,0.8
	c-0.9-1.5,1.1-2.1,2.2-2.7c13.3-7.7,26.7-15.4,40.1-23.1C283.8,132,284.7,130.8,285.2,132.5z"/>
<path class="st83" d="M292.1,164.9c-1.3,2.9-2.3,5.8-4.4,8.2c-3.4,3.7-5.6,3.9-10.2,0.9c1.8-0.2,2.2-1.8,3-3
	C283,166.6,286.5,163.8,292.1,164.9z"/>
<path class="st84" d="M235.8,161c0.2,3.3-2.1,4.4-4.3,4.9c-1.6,0.3-1-1.7-1.1-2.7c-0.4-3.1,2.2-4.1,4.2-4.6
	C236.1,158.2,235.7,160.2,235.8,161z"/>
<path class="st85" d="M235.5,149.1c0.6,3.7-1.8,4.7-3.9,5.2c-1.7,0.4-0.9-1.6-1.1-2.6c-0.4-3.1,2.1-4.1,4.1-4.7
	C236.2,146.7,235.4,148.7,235.5,149.1z"/>
<path class="st86" d="M197.1,151.9c0-0.3,0.1-0.6,0.2-0.8c1.6,1.7,0.8,3.8,0.8,5.7c0,41.1,0,82.1,0,123.2l0,0c-1.8-1.6-1-3.8-1-5.7
	C197.2,233.5,197.2,192.7,197.1,151.9z"/>
<path class="st87" d="M219.2,188.5c0-12.1,0-24.3,0-36.4c0-0.6,0.2-1.3,0.3-1.9c1.1,0.4,0.6,1.3,0.6,2c0,24.6,0,49.3,0,73.9
	c0,0.6-0.2,1.3-0.3,1.9c-1-0.4-0.6-1.3-0.6-2C219.2,213.4,219.2,200.9,219.2,188.5z"/>
<path class="st88" d="M382.3,194.9c-0.9,15.1-7.9,26.7-20.8,34.2c-9.8,5.7-18.5,0.7-18.5-10.6c-0.1-15.2,6.7-27.1,19.4-35.5
	c0.7,2-1.3,4.4,1,6.2c-7,6.2-12.2,13.6-13.9,23c-0.8,4.3-2.2,9.7,2.5,12.3c4.4,2.4,8.2-1.3,11.5-4c7-5.9,10.8-13.8,12.9-22.5
	C378.2,196.7,379.9,195.1,382.3,194.9z"/>
<path class="st89" d="M397.3,167c1.9,0.7,2.7,3.1,4.9,3c-1.1,2.9,1.1,5.3,1.6,7.9c0.6,3,2.4,5.8,3.1,8.8c0.8,3.7,2.9,4.8,6.3,4.3
	c-5.3,0.8-10.5,3.3-16,1C397.3,183.7,397.3,175.3,397.3,167z"/>
<path class="st90" d="M363.4,189.2c-2.2-1.8-0.3-4.2-1-6.2c7.5-5.1,13.7-4.4,17.9,1.9c-1.4,1.7-2.8,3.4-4.2,5.1
	c-2.7-4.3-4.4-4.8-8.8-2.8C366,187.9,364.7,188.6,363.4,189.2z"/>
<path class="st91" d="M385.2,181c-1,0.7-2,1.3-3,2c-1.6-2.3-3.3-4.5-4.9-6.8c-1.1-1.7-1.6-3.6-0.4-5.6c0.7-1.3,1.3-3.1,2.9-2.9
	c1.6,0.2,1.2,2,1.4,3.3c0.2,1.6,0.3,3,2.7,1.6c1.3-0.7,1.2,1,1.3,1.9C385.3,176.7,385.2,178.8,385.2,181z"/>
<path class="st92" d="M376.1,190c1.4-1.7,2.8-3.4,4.2-5.1c2.1,3,3.1,6.3,2.1,10c-2.4,0.2-4.1,1.8-6,3
	C376.3,195.3,376.2,192.7,376.1,190z"/>
<path class="st93" d="M355.3,170c4.3-1.2,7.8-4.2,11.7-6.2c0.9-0.4,1.9-1.4,2.6-0.3c0.8,1.2-0.6,1.7-1.4,2.1
	c-4.2,2.5-8.5,5-12.8,7.5C355.4,172.1,355.3,171,355.3,170z"/>
<path class="st94" d="M334.2,182.1c4.3-1.3,7.8-4.2,11.7-6.2c0.9-0.4,1.8-1.4,2.6-0.3c0.5,0.7-0.4,1.6-1.1,1.9
	c-4.3,1.8-7.3,6.7-12.9,5.7C334.3,182.8,334.2,182.4,334.2,182.1z"/>
<path class="st95" d="M391,150.3c0.1,1.9-0.3,2.4-0.9,2.7c-3.4,2-6.8,4-10.3,6c-0.6,0.3-1.3,0.6-1.6-0.3c-0.1-0.4,0.1-1.1,0.4-1.3
	c3.6-2.3,7.3-4.5,11-6.7C390.3,150.5,391,150.4,391,150.3z"/>
<path class="st96" d="M334.2,182.1c0.1,0.3,0.2,0.7,0.3,1c0.2,2.1-0.5,3.5-2.6,4.2c-0.8,0.3-1.2,0.1-1.4-0.7
	c-0.6-2.5,0.9-3.7,2.8-4.6C333.5,182,333.8,182.1,334.2,182.1C334.2,182.1,334.2,182.1,334.2,182.1z"/>
<path class="st97" d="M355.3,170c0.1,1.1,0.1,2.1,0.2,3.2c-0.8,1-1.7,2.1-3.1,1.8c-1-0.2-0.9-1.3-0.8-2
	C351.9,170.8,353.2,169.9,355.3,170z"/>
<path class="st98" d="M376.7,159.9c0,1.8-1.2,2.6-2.7,2.9c-1.2,0.2-0.9-1-1-1.7c-0.2-1.8,1-2.8,2.4-3.1
	C376.9,157.5,376.4,159,376.7,159.9z"/>
<path class="st99" d="M397.3,162c0.6,0.3,1.6,0.7,1.2,1.5c-0.4,0.7-1,0.1-1.3-0.4C397.2,162.7,397.2,162.3,397.3,162z"/>
<path class="st94" d="M334.2,182.1c-0.3,0-0.7,0-1-0.1C333.6,181.3,333.9,181.2,334.2,182.1z"/>
<path class="st100" d="M197.1,151.9c0,40.8,0,81.6,0.1,122.5c0,1.9-0.8,4,1,5.7c-0.4,0.8-1.1,0.9-1.9,0.9c0-41.9-0.1-83.9-0.1-125.8
	C196.2,154,196.1,152.8,197.1,151.9z"/>
<path class="st78" d="M135.2,204c1.5-1.3,2.9-2.7,4.6-3.8c5.3-3.3,9.5-2,12.3,3.7l0,0c1.1,10.1-2.4,18.3-10.5,24.2
	c-7.8,5.7-12.7,3.4-14.5-6.2c0-0.4,0.1-0.8,0.1-1.1c4.9-3.8,6.4-9.2,6.9-15C134.5,205.3,134.9,204.7,135.2,204z"/>
<path class="st101" d="M127.3,220.9c0,0.4-0.1,0.8-0.1,1.1c-1.3,0.8-2.5,1.6-3.8,2.3c-5.2,2.8-10.6-0.3-9.9-6
	c0.8-6.4,3-12.5,8.9-16.5c5.5-3.7,6.5-3.6,11.2,1.3c0.4,0.4,1.1,0.5,1.7,0.8c-0.3,0.6-0.7,1.3-1,1.9c-3.7,3.2-5.5,7.3-6.1,12
	c-0.3,0.3-0.6,0.7-0.9,1C127.3,219.7,127.3,220.3,127.3,220.9z"/>
<path class="st102" d="M152.2,204c-0.3-2.7,0.7-4.8,3-6.3c1.2-0.8,2.4-2,4-1.1c1.8,1,2.4,2.7,2,4.6c-0.3,1.6-0.7,3.3-1.6,4.6
	c-1.4,1.9-3,4.7-5.6,4.2c-1.8-0.4-0.2-3.2-0.9-4.8C152.9,204.8,152.5,204.4,152.2,204L152.2,204z"/>
<path class="st103" d="M130.1,185c-0.5-0.2-0.9-0.4-1.3-0.6c0.2-0.4,0.4-1,0.7-1.2c1.7-1.1,3.4-2.1,5.1-3.1c10.3-6,20.7-12,31-18
	c0.7-0.4,1.4-1.3,2.1-0.3c0.6,0.8-0.3,1.5-1,1.9c-5.7,3.4-11.4,6.8-17.2,10.1c-5.9,3.4-11.8,6.7-17.7,10.1
	C131.3,184.2,130.7,184.6,130.1,185z"/>
<path class="st104" d="M134.2,188c-1.1-0.8-1-1.8,0.1-2.3c6.7-3.4,12.7-8.2,19.9-10.7l0,0c-0.3,0.7-0.7,1.3-1,2c-2.1,0.3-3.9,1-5,3
	c-2.7,0.7-5.3,1.5-7,4C138.5,184.7,135.9,185.5,134.2,188L134.2,188z"/>
<path class="st105" d="M150.2,186c-4.2,4.3-10,6-14.8,9.3c-0.5,0.3-1.2,0.8-1.6,0c-0.1-0.2,0.5-0.8,0.8-1c1-0.6,2-1.1,2.5-2.3l0,0
	c0.8,0,1.6-0.2,2-1l0,0c2.1-0.4,4-1,5-3l0,0C146.2,187.3,148.2,186.7,150.2,186L150.2,186z"/>
<path class="st104" d="M154.2,175c3.4-3.6,7.9-5.5,12.3-7.5c1.9-0.9,0.8,0.9,0.7,1.6l0,0c-2.7,0.7-5.3,1.5-7,4l0,0
	C158.2,173.7,156.2,174.3,154.2,175L154.2,175z"/>
<path class="st106" d="M137.2,192c-1.2-0.3-2.6,1.4-3.1,0.5c-0.6-1.3,1.3-1.4,2.2-2c1.1-0.7,2.4-1.1,2.9-2.5c0,0,0,0,0,0
	c2-0.7,4-1.3,6-2c-0.3,0.7-0.7,1.3-1,2l0,0c-2.1,0.3-4,1-5,3l0,0C138.4,191,137.6,191.2,137.2,192L137.2,192z"/>
<path class="st106" d="M165.2,176c0.8-0.1,2-0.5,2.3-0.2c0.9,1.1-0.5,1.2-1.1,1.6c-2.8,2.1-5.8,3.7-9.2,4.6l0,0c0.3-0.7,0.7-1.3,1-2
	C160.9,179.3,163.6,178.5,165.2,176C165.2,176,165.2,176,165.2,176z"/>
<path class="st107" d="M166.2,173c0.5-0.1,1.1-0.5,1.3-0.3c0.8,0.6,0.1,1-0.4,1.3c-0.8,0.5-1.6,1.1-2,2l0,0c-2,0.7-4,1.3-6,2
	c1.1-2.8,4.9-2.3,6-5l0,0C165.5,173,165.9,173,166.2,173z"/>
<path class="st108" d="M157.2,182c-1.7,2.5-4.3,3.3-7,4c0,0,0,0,0,0c0.3-0.7,0.7-1.3,1-2C153.2,183.3,155.2,182.7,157.2,182
	C157.2,182,157.2,182,157.2,182z"/>
<path class="st107" d="M166.2,171c0,0.3,0,0.7,0,1c-0.3,0.3-0.7,0.7-1,1l0,0c-2,0.7-4,1.3-6,2c0.3-0.7,0.7-1.3,1-2l0,0
	C162.2,172.3,164.2,171.7,166.2,171C166.2,171,166.2,171,166.2,171z"/>
<path class="st106" d="M139.2,188c-1.6,0-2.7,1.1-4.2,1.6c-2.1,0.6-0.9-0.8-0.8-1.6l0,0c2-0.7,4-1.3,6-2
	C139.9,186.7,139.5,187.3,139.2,188L139.2,188z"/>
<path class="st107" d="M167.2,169c1.6,1.6,0.3,1.8-1,2l0,0C166.5,170.3,166.9,169.7,167.2,169L167.2,169z"/>
<path class="st109" d="M165.2,173c0.3-0.3,0.7-0.7,1-1c0,0.3,0,0.6,0,1C165.9,173,165.5,173,165.2,173z"/>
<path class="st102" d="M122.3,302.1c-1.7-1.2-1.1-3-1.1-4.6c0-12.1,0-24.2,0-36.3c0-1.2-0.1-2.4,0.3-3.4c0.5-1.5,1.6-2.8,3.3-2.6
	c1.9,0.2,1.4,2,1.4,3.2c0,12.8,0,25.5,0.1,38.3c0,1.9-0.8,3.1-2,4.2C123.6,301.4,123,301.7,122.3,302.1z"/>
<path class="st110" d="M144.2,255c1.9,0.1,1.9,1.5,1.9,2.9c0,11.1,0,22.2,0,33.3c0,1.2,0,2.3-0.9,3.3c-0.9,1-2,2.1-3.4,1.7
	c-1.4-0.4-0.7-2-0.7-3c-0.1-10.8,0-21.6,0-32.3c0-1.7,0-3.3,1.2-4.7C143,255.7,143.6,255.4,144.2,255z"/>
<path class="st111" d="M164.2,237.8c1.7,1.2,1.1,3,1.1,4.6c0,12.1,0,24.3,0,36.4c0,1.5,0.4,3-0.7,4.3c-0.6,0.8-1.4,1.6-2.4,1.4
	c-1.3-0.3-1-1.6-1-2.5c0.1-14.3,0.2-28.6,0.2-42.9C162.3,238.8,163.3,238.3,164.2,237.8z"/>
<path class="st112" d="M132.2,285c-0.7-0.1-1.4-0.2-1.4-1.1c0.8-9.8,0.1-19.5,0.4-29.3c0-1.1-0.2-2.4,0.5-3.4c0.8-1.1,2-2,3.4-1.8
	c1.6,0.2,1.1,1.8,1.1,2.9c0,9.1,0,18.2,0.1,27.3c0,1.9-0.7,3.1-2.1,4.2C133.5,284.2,132.8,284.6,132.2,285z"/>
<path class="st112" d="M151.2,271c0-9.2,0-18.3,0-27.5c0-1.4-0.6-3.1,0.8-4.2c1-0.8,1.9-2.3,3.3-1.8c1.4,0.5,0.8,2,0.8,3.1
	c0,8,0,16,0,24c0,1.5-0.2,3-1,4.3C153.9,269.7,152.5,270.4,151.2,271z"/>
<path class="st113" d="M114.2,283.9c2.5,0.4,1.9,2.4,1.9,3.9c0,6.8-0.1,13.6,0.1,20.4c0,2.2-0.6,3.8-2.6,4.9c-1.8,1-2.4,0.4-2.4-1.4
	c0-8.1,0-16.3,0.1-24.4c0-0.8,0.6-1.5,1-2.3C112.9,284.6,113.5,284.2,114.2,283.9z"/>
<path class="st114" d="M114.2,283.9c-0.7,0.4-1.3,0.8-2,1.1c-2.1-2.8-0.8-6.1-1-9.1c-0.2-3.8-0.1-7.6,0-11.4c0-2.5,2.1-3.8,3.8-3.9
	c2,0,1.1,2.3,1.2,3.7c0.1,5,0,10,0.1,14.9C116.3,281.2,115.8,282.7,114.2,283.9z"/>
<path class="st115" d="M151.2,271c1.3-0.7,2.7-1.4,4-2.1c1.9,6,0.7,12,0.7,18.1c0,2-2,3.5-3.8,3.2c-1.9-0.3-0.9-2.5-0.9-3.8
	C151.1,281.3,151.2,276.2,151.2,271z"/>
<path class="st116" d="M132.2,285c0.7-0.4,1.3-0.7,2-1.1c1.1,0.2,1.9,0.7,1.9,1.9c0,4.1,0,8.2,0,12.4c0,1.1-0.4,2-1.3,2.5
	c-1,0.6-2.1,1.6-3,1.4c-1.4-0.3-0.8-2-0.7-3C131.6,294.4,130,289.6,132.2,285z"/>
<path class="st112" d="M144.2,255c-0.6,0.4-1.3,0.8-1.9,1.1c-2.3-3.1-1-6.7-0.9-10c0-1.8,2-2.8,3.7-2.6c1.8,0.2,1.1,2.1,1.1,3.3
	C146,249.6,147.2,252.8,144.2,255z"/>
<path class="st117" d="M164.2,237.8c-0.9,0.5-1.9,0.9-2.8,1.4c-1.1-0.8-0.2-1.8-0.3-2.7c-0.1-2,0.4-3.6,2.5-4.2c1-0.3,2-0.3,2.4,0.9
	C166.7,235.3,165.8,236.7,164.2,237.8z"/>
<path class="st118" d="M122.3,302.1c0.6-0.4,1.3-0.7,1.9-1.1c3.2,1,2.1,3.2,1.2,5c-0.6,1.1-2.5,2.5-3.6,1.4
	C120.3,305.9,121.1,303.8,122.3,302.1z"/>
<path class="st41" d="M195.1,153c0,42,0,83.9,0,125.9c0,1.4,0.4,3-1,4.2c0-0.3,0-0.7,0-1c0-43,0-86,0-129
	C194.5,153,194.8,153,195.1,153z"/>
<path class="st119" d="M194.2,153c0,43,0,86,0,129c-1.5-1.3-0.9-3.1-0.9-4.7c0-39.9,0-79.8,0-119.6
	C193.2,156.1,192.6,154.3,194.2,153z"/>
<path class="st120" d="M77.2,343c-0.8,0-1.6-0.1-2-0.9C76,342,76.8,342.1,77.2,343z"/>
<path class="st25" d="M376.1,190c0.1,2.6,0.2,5.3,0.3,7.9c-2.1,8.8-5.9,16.6-12.9,22.5c-3.3,2.8-7.1,6.4-11.5,4
	c-4.7-2.6-3.3-8-2.5-12.3c1.7-9.4,6.9-16.8,13.9-23c1.3-0.7,2.6-1.4,3.9-2C371.7,185.2,373.4,185.7,376.1,190z"/>
<path class="st121" d="M127.3,220.9c0-0.6,0-1.3,0-1.9c0.3-0.3,0.6-0.7,0.9-1c0.6-4.7,2.4-8.8,6.1-12
	C133.7,211.8,132.2,217.2,127.3,220.9z"/>
<path class="st78" d="M128.2,218c-0.3,0.3-0.6,0.7-0.9,1C127.6,218.7,127.9,218.3,128.2,218z"/>
<path class="st122" d="M141.2,184c1.7-2.5,4.3-3.3,7-4c0,0,0,0,0,0c-0.3,0.7-0.7,1.3-1,2C145.2,182.7,143.2,183.3,141.2,184
	L141.2,184z"/>
<path class="st122" d="M160.2,173c-0.3,0.7-0.7,1.3-1,2l0,0c-2,0.7-4,1.3-6,2l0,0c0.3-0.7,0.7-1.3,1-2
	C156.2,174.3,158.2,173.7,160.2,173z"/>
<path class="st122" d="M140.2,186c-2,0.7-4,1.3-6,2c1.7-2.5,4.3-3.3,7-4l0,0C140.9,184.7,140.5,185.3,140.2,186L140.2,186z"/>
<path class="st122" d="M148.2,180c1.1-2,2.9-2.7,5-3l0,0C152.2,179,150.3,179.7,148.2,180L148.2,180z"/>
<path class="st123" d="M151.2,184c-0.3,0.7-0.7,1.3-1,2c-2,0.7-4,1.3-6,2c0.3-0.7,0.7-1.3,1-2c0,0,0,0,0,0
	C147.2,185.3,149.2,184.7,151.2,184C151.2,184,151.2,184,151.2,184z"/>
<path class="st124" d="M139.2,191c1.1-2,2.9-2.7,5-3C143.2,190,141.3,190.7,139.2,191z"/>
<path class="st125" d="M137.2,192c0.4-0.9,1.2-1,2-1C138.8,191.8,138,192,137.2,192z"/>
<path class="st122" d="M167.2,169c-0.3,0.7-0.7,1.3-1,2c-2,0.7-4,1.3-6,2C161.9,170.5,164.5,169.7,167.2,169z"/>
<path class="st126" d="M139.2,188c0.3-0.7,0.7-1.3,1-2l0,0c2-0.7,4-1.3,6-2c-0.3,0.7-0.7,1.3-1,2c0,0,0,0,0,0
	C143.2,186.7,141.2,187.3,139.2,188z"/>
<path class="st127" d="M157.2,182c-2,0.7-4,1.3-6,2c0,0,0,0,0,0c0.3-0.7,0.7-1.3,1-2c2-0.7,4-1.3,6-2l0,0
	C157.9,180.7,157.5,181.3,157.2,182z"/>
<path class="st124" d="M159.2,178c2-0.7,4-1.3,6-2c-1.7,2.5-4.3,3.3-7,4l0,0C158.5,179.3,158.9,178.7,159.2,178L159.2,178z"/>
<path class="st128" d="M159.2,175c2-0.7,4-1.3,6-2c-1.1,2.8-4.9,2.3-6,5l0,0c-2,0.7-4,1.3-6,2C154.3,177.2,158.1,177.8,159.2,175
	L159.2,175z"/>
<path class="st107" d="M159.2,175c-1.1,2.8-4.9,2.2-6,5c0,0,0,0,0,0c-2,0.7-4,1.3-6,2l0,0c0.3-0.7,0.7-1.3,1-2c2.1-0.3,3.9-1,5-3
	C155.2,176.3,157.2,175.7,159.2,175z"/>
<path class="st129" d="M146.2,184c-2,0.7-4,1.3-6,2c0.3-0.7,0.7-1.3,1-2c2-0.7,4-1.3,6-2l0,0C146.9,182.7,146.5,183.3,146.2,184
	L146.2,184z"/>
<path class="st107" d="M152.2,182c-0.3,0.7-0.7,1.3-1,2c-2,0.7-4,1.3-6,2c0.3-0.7,0.7-1.3,1-2l0,0
	C148.2,183.3,150.2,182.7,152.2,182C152.2,182,152.2,182,152.2,182z"/>
<path class="st108" d="M153.2,180c2-0.7,4-1.3,6-2c-0.3,0.7-0.7,1.3-1,2c-2,0.7-4,1.3-6,2l0,0C152.5,181.3,152.9,180.7,153.2,180
	L153.2,180z"/>
<path class="st128" d="M153.2,180c-0.3,0.7-0.7,1.3-1,2c-2,0.7-4,1.3-6,2c0.3-0.7,0.7-1.3,1-2C149.2,181.3,151.2,180.7,153.2,180z"
	/>
</svg>
